<?xml version="1.0" standalone="no"?>
<!DOCTYPE svg PUBLIC "-//W3C//DTD SVG 20010904//EN"
 "http://www.w3.org/TR/2001/REC-SVG-20010904/DTD/svg10.dtd">
<svg version="1.0" xmlns="http://www.w3.org/2000/svg"
 width="1345.000000pt" height="900.000000pt" viewBox="0 0 1345.000000 900.000000"
 preserveAspectRatio="xMidYMid meet">
<metadata>
Created by potrace 1.16, written by Peter Selinger 2001-2019
</metadata>
<g transform="translate(0.000000,900.000000) scale(0.100000,-0.100000)"
fill="#000000" stroke="none">
<path d="M20 8986 c0 -9 -4 -16 -10 -16 -6 0 -10 -50 -10 -130 0 -73 4 -130 9
-130 5 0 25 18 43 40 27 31 37 37 47 27 10 -9 11 -7 6 15 -4 17 -2 29 7 35 16
10 50 80 55 113 2 15 0 20 -5 13 -11 -17 -82 3 -82 22 0 8 -6 15 -14 15 -8 0
-21 3 -30 6 -11 4 -16 1 -16 -10z"/>
<path d="M290 8990 c0 -5 7 -10 15 -10 8 0 15 -5 15 -12 0 -17 -49 -78 -63
-78 -22 0 -41 -59 -28 -86 11 -25 35 -32 46 -14 3 6 15 10 26 10 10 0 19 3 19
8 0 4 14 7 30 8 25 1 30 -3 30 -22 0 -13 5 -24 10 -24 6 0 10 4 10 9 0 5 11 9
25 9 15 0 25 -6 25 -14 0 -8 6 -14 13 -14 18 0 37 -43 37 -80 0 -20 -5 -30
-15 -30 -8 0 -15 -6 -15 -13 0 -7 -15 -35 -33 -62 -30 -45 -77 -167 -77 -202
0 -7 -6 -13 -12 -14 -7 0 -3 -4 10 -9 23 -10 29 -39 11 -57 -7 -7 -3 -16 14
-30 14 -10 26 -27 28 -38 2 -10 19 -25 36 -34 18 -9 33 -22 33 -28 0 -21 34
-15 62 12 15 14 28 25 30 25 2 0 3 -17 3 -38 0 -28 7 -43 27 -60 25 -22 29
-22 44 -8 8 9 19 16 24 16 17 0 20 -18 5 -30 -22 -18 -4 -35 53 -49 26 -7 62
-16 79 -21 18 -4 43 -6 54 -3 15 4 27 0 35 -12 18 -25 18 -35 -2 -35 -13 0
-12 -5 5 -26 30 -39 25 -74 -6 -43 -7 7 -13 7 -17 1 -3 -6 -2 -13 4 -17 5 -3
10 -16 10 -29 0 -30 37 -73 51 -59 7 7 5 14 -6 23 -17 14 -20 30 -5 30 6 0 10
-5 10 -11 0 -13 20 -33 43 -42 10 -4 17 -17 17 -33 0 -21 4 -25 20 -21 11 3
20 1 20 -4 0 -5 3 -8 8 -8 24 4 42 -3 42 -16 0 -8 3 -15 8 -16 39 -4 70 -19
39 -19 -9 0 -17 -4 -17 -10 0 -5 19 -11 43 -11 23 -1 34 -3 24 -6 -34 -9 -5
-22 38 -17 25 3 46 0 50 -6 3 -5 14 -10 23 -10 23 -1 62 -35 62 -54 0 -16 12
-23 83 -46 43 -13 56 -8 37 15 -7 8 -9 15 -4 15 8 0 65 -17 101 -31 14 -5 23
-4 26 4 3 9 12 9 41 -1 20 -8 57 -12 81 -11 25 2 50 -2 57 -9 7 -7 18 -12 25
-12 7 0 13 -4 13 -10 0 -15 19 -12 36 5 9 8 21 15 27 15 7 0 6 -4 -3 -10 -12
-8 -13 -11 -2 -22 11 -11 16 -9 28 6 12 17 14 17 14 3 0 -10 6 -14 13 -11 8 3
19 -2 26 -10 7 -8 19 -12 27 -9 8 3 14 0 14 -6 0 -6 6 -11 14 -11 8 0 16 -5
18 -12 3 -8 9 -8 23 -1 14 8 23 6 39 -8 23 -22 42 -24 49 -6 9 23 77 9 89 -19
10 -22 12 -22 24 -6 11 15 13 14 25 -11 13 -29 24 -34 32 -14 4 10 6 10 6 0 1
-8 16 -13 41 -13 22 0 40 -4 40 -10 0 -16 40 -12 46 5 7 18 34 20 34 3 0 -7 7
-4 16 7 13 17 16 18 24 5 5 -8 10 -18 10 -21 0 -3 11 -4 25 -1 22 4 25 1 25
-22 0 -20 4 -26 18 -24 11 2 17 -3 17 -17 -1 -11 7 -28 17 -37 17 -17 18 -17
19 0 1 9 1 20 0 24 0 4 6 5 14 2 7 -3 16 -18 18 -32 l3 -27 13 32 c7 18 18 30
25 27 8 -3 18 11 26 36 9 27 19 40 32 40 10 0 18 6 18 14 0 9 13 13 40 13 22
0 40 -4 40 -8 0 -5 5 -9 10 -9 6 0 9 6 8 13 -2 9 11 11 50 9 62 -4 152 16 152
35 0 7 3 13 8 14 4 0 18 2 32 3 14 2 34 0 44 -4 13 -4 31 1 54 17 45 30 115
32 139 4 15 -18 18 -19 29 -3 24 33 123 21 110 -14 -3 -7 8 -17 26 -23 42 -15
73 -14 87 3 6 8 20 16 30 19 15 3 17 0 13 -17 -5 -20 -4 -20 15 -3 11 9 26 17
34 17 11 1 10 4 -3 14 -25 18 -23 46 2 46 12 0 24 -9 29 -22 8 -19 10 -20 16
-7 4 11 14 15 26 12 12 -3 21 1 25 11 6 15 8 15 21 -4 10 -14 21 -18 38 -14
12 3 26 1 29 -5 4 -6 22 -11 40 -11 24 0 38 -7 48 -22 14 -21 17 -22 44 -8 16
8 36 20 45 27 9 7 47 15 85 17 75 4 153 18 197 35 16 6 33 8 39 5 7 -5 8 -2 3
6 -6 9 0 10 26 4 19 -4 43 -7 53 -6 14 1 16 -2 7 -11 -18 -18 -13 -29 9 -17
11 6 20 17 20 25 0 17 16 20 25 5 3 -5 11 -10 16 -10 6 0 8 4 4 9 -9 15 33 33
58 25 12 -4 33 -14 47 -23 28 -19 80 -26 80 -11 0 11 33 14 43 4 3 -3 29 -7
57 -9 32 -1 47 1 38 6 -9 6 -2 9 20 9 20 0 39 -8 49 -20 17 -19 53 -27 66 -13
4 3 22 8 39 10 18 1 43 5 55 8 12 3 25 1 28 -5 9 -14 55 -13 55 2 0 7 7 5 18
-5 15 -14 21 -14 44 -3 25 13 26 13 23 -12 -2 -23 -1 -24 10 -9 6 9 15 14 18
11 8 -8 -3 -34 -14 -34 -23 0 -119 -120 -119 -150 0 -5 -9 -25 -21 -44 -11
-19 -18 -40 -15 -45 3 -5 -1 -11 -9 -15 -8 -3 -15 -12 -15 -20 0 -9 -12 -24
-27 -33 -33 -21 -62 -53 -63 -69 0 -16 -24 -64 -32 -64 -5 0 -8 -9 -8 -21 0
-11 -4 -18 -9 -15 -11 7 -31 -47 -31 -86 0 -17 -4 -27 -10 -23 -12 7 -13 -5
-1 -23 6 -10 12 -4 22 20 14 35 15 38 19 66 1 11 3 12 7 4 2 -6 9 -10 14 -7 5
4 7 -8 5 -24 -2 -17 1 -31 5 -31 5 0 9 9 9 20 0 23 10 26 28 8 9 -9 15 -9 25
1 10 11 9 14 -1 18 -6 3 -12 12 -11 21 0 11 2 12 6 5 2 -7 12 -13 20 -13 13 0
13 3 3 15 -7 8 -8 15 -3 15 5 0 10 8 11 18 1 27 -30 92 -41 85 -5 -3 -8 0 -5
8 5 16 30 19 40 5 8 -11 47 32 48 52 0 7 5 10 10 7 6 -4 9 -1 8 6 -2 6 3 14
11 17 8 3 11 0 7 -7 -4 -6 0 -18 8 -27 15 -14 16 -14 16 0 0 22 20 20 21 -1 1
-30 7 -54 15 -61 4 -4 5 0 2 8 -3 8 4 19 15 25 17 9 25 30 29 83 1 6 5 12 10
12 5 0 14 11 20 25 8 19 14 22 19 13 13 -21 43 4 47 38 2 16 8 34 14 39 7 7 8
3 3 -12 -4 -15 -2 -23 5 -23 7 0 10 -7 6 -15 -5 -13 -2 -14 17 -4 12 7 26 18
30 26 5 8 20 18 33 23 16 6 24 17 24 32 0 13 7 36 15 52 13 24 13 31 3 37 -8
6 -16 1 -22 -11 -10 -23 -22 -26 -24 -7 -1 6 -5 29 -8 49 -7 45 13 76 33 49 8
-10 12 -12 13 -3 0 6 7 12 15 12 8 0 15 5 15 10 0 6 6 10 14 10 7 0 25 12 39
26 14 14 34 27 44 29 10 2 20 4 23 5 3 0 15 9 28 20 18 15 21 23 13 37 -8 15
-6 19 10 19 11 0 18 -5 15 -12 -2 -6 4 -17 15 -25 24 -17 24 -24 -3 -49 -19
-18 -20 -22 -8 -30 11 -7 11 -10 2 -10 -8 0 -10 -5 -6 -12 5 -7 2 -9 -8 -5
-10 3 -15 0 -14 -11 0 -9 -6 -17 -14 -18 -36 -3 -40 -5 -40 -19 0 -8 -7 -15
-15 -15 -12 0 -13 4 -3 25 6 14 15 25 20 25 4 0 8 7 8 15 0 8 -5 15 -11 15 -6
0 -8 8 -5 18 3 9 -7 1 -23 -18 -16 -19 -27 -38 -25 -42 3 -5 2 -13 -2 -19 -4
-8 -9 -7 -15 2 -6 10 -9 11 -9 2 0 -7 -11 -13 -24 -13 -29 0 -43 -17 -27 -33
8 -8 11 -6 11 6 0 9 4 17 10 17 11 0 5 -57 -8 -73 -13 -15 -10 -67 3 -68 45
-6 59 -4 80 13 14 11 25 24 25 29 0 6 -7 3 -16 -5 -20 -21 -23 -20 -17 4 3 11
0 27 -7 35 -15 18 0 20 20 3 12 -11 12 -10 1 5 -8 9 -11 21 -7 24 4 4 10 3 14
-3 4 -6 17 -10 30 -9 12 1 22 -1 22 -5 0 -3 9 -6 20 -6 10 0 17 2 15 5 -9 8
27 40 40 35 19 -8 89 62 81 81 -3 9 -2 13 4 10 6 -3 10 1 10 9 0 9 -6 16 -14
16 -8 0 -17 4 -20 8 -3 5 9 6 26 4 22 -3 29 -1 24 7 -4 6 -12 8 -18 5 -6 -4
-9 -1 -6 7 3 8 -2 29 -9 48 -13 30 -13 33 1 28 12 -5 14 0 9 25 -6 28 -5 30
15 19 25 -14 43 -14 22 -1 -19 12 -4 13 36 1 36 -10 49 -5 56 26 6 23 -17 41
-26 20 -3 -9 -5 -9 -5 1 -1 6 -7 12 -15 12 -8 0 -16 3 -18 8 -7 16 -66 41 -86
35 -12 -3 -22 -1 -22 5 0 10 77 22 83 12 2 -3 3 0 1 7 -3 13 19 33 56 51 31
16 56 18 93 9 19 -5 27 -4 27 5 0 9 3 8 10 -2 8 -12 10 -12 10 -1 0 8 7 11 20
8 10 -3 21 0 22 5 3 7 10 5 18 -3 18 -17 83 -22 73 -6 -4 7 2 8 18 2 33 -11
82 -10 86 2 2 5 55 8 121 7 146 -3 303 -34 255 -51 -25 -9 -12 -31 21 -37 31
-6 33 -9 32 -44 -1 -32 2 -37 19 -34 l20 4 -20 -16 c-19 -15 -19 -15 11 -10
28 5 32 3 38 -20 3 -14 11 -26 17 -26 6 0 7 5 4 10 -3 6 1 10 9 10 20 0 56
-39 56 -61 0 -10 4 -19 9 -21 6 -1 12 -16 15 -31 3 -16 9 -34 14 -40 12 -15
15 -97 4 -97 -13 0 -31 67 -25 91 5 18 3 20 -15 15 -16 -6 -21 -2 -24 16 -2
18 -9 23 -33 23 -22 0 -30 -4 -29 -17 1 -10 -4 -18 -12 -18 -8 0 -14 -9 -14
-20 0 -11 -7 -20 -15 -20 -17 0 -19 -18 -6 -39 10 -16 4 -41 -11 -41 -5 0 -6
5 -3 10 3 6 -1 10 -9 10 -23 0 -41 39 -22 46 8 3 17 13 21 22 5 14 4 14 -13
-1 -14 -13 -21 -14 -30 -5 -9 9 -12 9 -12 -3 0 -8 5 -20 11 -26 14 -14 -5 -28
-23 -17 -7 5 -21 9 -31 9 -37 3 -58 66 -32 95 10 11 16 21 14 21 -65 21 -111
-32 -63 -72 22 -18 17 -25 -18 -26 -75 -1 -88 -3 -88 -18 0 -17 -36 -39 -50
-30 -5 3 -14 -4 -20 -15 -6 -11 -15 -18 -20 -15 -5 3 -7 -10 -5 -30 4 -30 2
-35 -15 -35 -11 0 -20 -4 -20 -10 0 -5 7 -7 15 -4 18 7 21 -27 5 -56 -8 -15
-6 -20 9 -25 26 -8 35 -39 21 -65 -7 -12 -9 -24 -6 -27 2 -3 -6 -17 -20 -32
-21 -22 -26 -24 -34 -11 -5 8 -10 11 -10 5 -1 -5 -8 2 -16 18 -17 31 -40 35
-49 8 -3 -10 -13 -18 -23 -17 -11 1 -17 -6 -17 -19 0 -11 -4 -26 -8 -32 -5 -7
-4 -13 1 -13 17 0 58 -42 45 -47 -32 -12 2 -63 41 -63 31 0 83 -55 68 -73 -9
-10 -7 -17 8 -29 13 -12 20 -13 24 -5 3 9 5 8 5 -1 1 -7 5 -11 10 -8 5 3 19
-2 31 -12 l22 -18 -26 -12 c-14 -6 -25 -8 -25 -4 3 19 -2 32 -12 32 -8 0 -9
-4 0 -13 6 -8 8 -17 4 -20 -3 -4 2 -17 13 -29 14 -16 15 -20 4 -16 -10 4 -16
0 -16 -12 0 -10 5 -16 12 -13 7 2 11 -7 12 -24 0 -66 2 -73 20 -73 9 0 13 -4
7 -8 -5 -4 -11 -18 -13 -32 -2 -14 -10 -38 -18 -54 -17 -34 -18 -46 -4 -46 6
0 15 11 20 25 5 14 13 25 18 25 5 0 28 -18 53 -41 31 -28 44 -49 45 -70 1 -23
-2 -29 -20 -29 -18 0 -19 -2 -6 -11 12 -9 11 -9 -5 -4 -11 4 -31 10 -45 13
-13 3 -42 18 -64 34 -30 21 -42 25 -48 16 -5 -9 -8 -4 -8 13 0 34 -28 59 -63
55 -16 -2 -32 3 -39 13 -12 14 -11 15 7 1 15 -11 14 -7 -4 13 -17 19 -28 24
-36 17 -9 -7 -16 -6 -24 3 -6 8 -9 16 -6 19 3 3 -13 5 -35 5 -25 0 -37 -4 -33
-11 3 -6 0 -6 -7 1 -11 10 -11 15 0 28 11 13 10 14 -3 9 -9 -3 -23 1 -31 8
-12 13 -12 17 6 29 11 8 27 19 35 25 13 9 11 13 -11 28 -33 21 -49 12 -44 -24
4 -26 2 -27 -20 -19 -13 5 -30 9 -39 9 -13 0 -13 -3 -3 -15 21 -25 -5 -17 -30
10 -13 14 -31 25 -39 24 -9 0 -5 -5 9 -10 l25 -10 -40 -25 c-45 -27 -59 -30
-52 -11 3 8 -2 13 -12 13 -120 1 -151 18 -35 20 42 1 71 7 82 17 9 8 26 17 36
18 27 5 31 25 6 32 -11 3 -20 12 -20 21 0 9 -7 16 -15 16 -8 0 -12 -6 -9 -14
3 -8 0 -17 -6 -21 -9 -6 -9 -10 1 -16 12 -7 12 -9 1 -9 -8 0 -16 9 -19 20 -3
11 -8 21 -12 21 -3 1 -15 3 -26 4 -31 3 -86 35 -80 45 4 6 0 10 -9 10 -8 0
-22 3 -32 7 -16 6 -17 5 -4 -9 8 -9 20 -13 25 -10 6 3 6 1 2 -4 -5 -5 -14 -9
-20 -9 -7 -1 -11 -6 -10 -12 1 -6 -4 -14 -12 -17 -9 -3 -15 1 -15 10 0 11 -6
13 -22 8 -20 -6 -21 -5 -9 10 8 9 11 20 7 23 -4 4 4 13 16 20 l23 12 -27 1
c-15 0 -29 -4 -32 -9 -3 -5 -17 -11 -31 -14 -22 -4 -26 -1 -24 17 3 39 -1 48
-17 42 -8 -3 -13 -2 -10 2 2 4 -7 12 -20 19 -15 7 -24 7 -24 1 0 -6 -7 -8 -14
-5 -10 4 -13 1 -9 -9 14 -37 -66 -64 -82 -26 -6 12 -10 3 -16 -33 -8 -52 3
-74 28 -53 9 7 13 7 13 -1 0 -6 -4 -11 -10 -11 -5 0 -10 -5 -10 -11 0 -5 5 -7
10 -4 16 10 11 -1 -7 -16 -9 -8 -14 -9 -10 -3 4 7 0 17 -7 23 -10 8 -16 9 -21
1 -3 -5 -1 -10 5 -10 6 0 9 -4 5 -10 -9 -15 -35 0 -35 21 0 16 -3 18 -19 9
-38 -20 -34 -10 8 20 38 28 47 51 18 49 -8 0 -7 -2 1 -6 10 -4 7 -9 -10 -18
-14 -7 -30 -9 -40 -3 -13 6 -16 5 -12 -5 3 -8 -2 -22 -11 -31 -12 -12 -13 -16
-3 -16 10 0 9 -3 -2 -10 -8 -5 -12 -10 -9 -10 4 0 3 -16 -1 -35 -5 -24 -4 -35
4 -35 7 0 6 -3 -2 -9 -8 -4 -13 -17 -12 -27 5 -41 0 -56 -15 -50 -8 3 -15 0
-15 -6 0 -9 -3 -9 -12 0 -19 19 -45 -4 -52 -49 -4 -22 -14 -57 -22 -77 -14
-33 -17 -35 -24 -17 -6 14 -9 15 -10 5 0 -9 -6 -6 -15 10 -10 17 -14 20 -15 9
0 -9 -7 -20 -16 -23 -12 -5 -14 -1 -9 15 7 20 5 20 -29 -6 -40 -30 -48 -24
-14 12 20 22 21 23 2 24 -10 0 -13 3 -6 6 6 2 12 16 12 29 0 25 -15 33 -23 12
-4 -10 -8 -9 -16 2 -10 15 -26 7 -26 -13 0 -6 -17 -18 -39 -26 -30 -11 -42
-12 -57 -3 -27 17 -33 15 -52 -18 -17 -29 -47 -41 -47 -20 0 14 -43 13 -58 -2
-7 -7 -12 -23 -12 -37 0 -42 -14 -55 -62 -60 -5 -1 -8 -7 -8 -15 0 -8 -9 -18
-20 -21 -11 -3 -20 -10 -20 -15 0 -4 -11 -10 -25 -12 -16 -4 -25 0 -28 11 -4
14 -5 14 -6 0 0 -9 6 -22 14 -29 8 -7 15 -17 15 -23 0 -6 -11 0 -24 12 -15 14
-26 19 -30 12 -7 -11 -56 -35 -93 -46 -12 -3 -32 -22 -43 -41 -12 -19 -25 -32
-29 -29 -5 2 -21 -9 -37 -26 -15 -16 -34 -27 -41 -25 -7 3 -13 -1 -13 -9 0
-10 -10 -15 -30 -15 -31 0 -66 -40 -41 -48 6 -2 11 -8 11 -14 0 -6 -9 -3 -20
7 -26 23 -43 9 -42 -35 1 -33 -8 -37 -38 -17 -17 10 -22 9 -29 -1 -6 -10 -10
-10 -21 3 -16 19 -30 19 -66 0 -17 -9 -30 -11 -32 -5 -5 15 -48 12 -61 -3 -6
-8 -8 -17 -4 -20 3 -4 -1 -7 -10 -7 -16 0 -41 -33 -31 -42 3 -3 -9 -4 -26 -2
-28 3 -35 -3 -31 -28 0 -5 -2 -7 -7 -7 -23 4 -34 -4 -43 -31 -6 -16 -16 -30
-23 -30 -17 0 -56 -43 -56 -61 0 -8 -6 -21 -12 -27 -10 -10 -8 -14 10 -18 12
-4 19 -10 16 -16 -3 -5 -11 -5 -17 0 -7 4 -19 8 -27 7 -8 0 -18 4 -22 10 -5 6
-8 5 -8 -3 0 -7 -4 -11 -9 -8 -5 4 -7 -3 -4 -14 8 -30 -4 -55 -20 -42 -17 14
-36 1 -42 -27 -2 -13 -16 -34 -30 -47 -25 -23 -28 -31 -29 -89 -1 -21 -7 -31
-21 -33 -26 -5 -35 -20 -35 -59 0 -17 -5 -44 -10 -59 -6 -15 -9 -28 -8 -29 3
-3 70 28 169 76 44 21 62 12 54 -27 -5 -27 -5 -28 5 -5 10 24 11 24 29 5 13
-13 15 -23 9 -31 -12 -14 -2 -29 48 -78 16 -16 21 -23 10 -15 -12 9 -36 26
-55 39 l-34 24 19 -25 c10 -14 31 -33 47 -41 24 -14 26 -20 17 -37 -6 -11 -16
-20 -22 -20 -6 0 -8 3 -5 6 3 4 -5 16 -19 27 l-26 20 -21 -22 c-18 -18 -18
-21 -4 -15 9 3 17 2 17 -4 0 -15 -26 -22 -38 -10 -8 8 -15 8 -26 -1 -12 -10
-17 -5 -31 27 -14 32 -22 38 -41 34 -16 -3 -21 -9 -17 -21 5 -13 3 -14 -7 -4
-10 10 -19 3 -41 -32 -19 -29 -36 -45 -49 -45 -11 0 -20 -4 -20 -9 0 -12 33
-9 43 4 9 11 21 -8 15 -22 -4 -9 -108 -11 -108 -2 0 21 -34 15 -62 -10 -27
-24 -29 -29 -14 -34 11 -4 15 -3 10 4 -4 8 6 10 35 6 22 -2 41 -2 41 2 0 3 14
7 30 8 21 2 30 -2 30 -12 0 -8 -5 -15 -11 -15 -6 0 -9 -7 -6 -15 4 -8 2 -17
-3 -20 -5 -3 -10 0 -13 7 -2 7 -3 2 -1 -12 4 -33 -5 -46 -39 -59 -28 -11 -35
-3 -16 16 8 8 8 13 0 17 -6 4 -11 1 -11 -7 0 -20 -31 -31 -41 -15 -10 15 -2
28 17 28 8 0 14 5 14 10 0 18 -24 10 -47 -14 -13 -13 -23 -33 -23 -44 0 -11
-7 -25 -15 -32 -13 -11 -13 -8 -4 20 9 24 9 34 -1 43 -10 9 -11 9 -6 0 4 -7 3
-13 -2 -13 -5 0 -12 -10 -15 -21 l-6 -21 -35 22 c-35 21 -76 21 -76 -1 0 -6
-10 -9 -22 -7 -17 2 -22 -1 -20 -14 2 -13 -4 -18 -18 -18 -12 0 -18 5 -15 10
4 6 -5 5 -19 -2 -28 -12 -33 -23 -15 -33 14 -9 -20 -34 -46 -34 -28 0 -53 21
-60 52 -6 21 -4 27 9 27 9 0 16 4 16 10 0 5 -8 6 -17 3 -16 -6 -17 -5 -3 13
11 14 8 14 -11 -3 -25 -23 -54 -30 -63 -15 -5 9 -53 9 -62 -1 -3 -3 -2 -11 2
-18 13 -21 14 -58 2 -65 -7 -5 -9 -1 -5 9 5 13 2 14 -16 7 -12 -4 -21 -13 -20
-19 5 -18 -14 -12 -38 13 -13 13 -29 22 -36 19 -7 -3 -20 0 -28 7 -12 10 -22
10 -39 2 -14 -6 -28 -7 -37 -1 -21 13 -41 11 -33 -3 3 -7 -5 -1 -18 14 -23 25
-26 26 -41 11 -15 -15 -17 -14 -28 10 -14 31 -17 32 -46 12 -19 -13 -85 -17
-78 -4 8 11 -43 55 -86 73 -24 11 -60 38 -80 61 l-35 42 -33 -18 -34 -18 27
-7 c18 -4 25 -11 22 -21 -4 -9 4 -16 24 -20 16 -3 27 -10 24 -15 -4 -5 -16 -7
-28 -4 -20 5 -20 4 -2 -9 18 -13 17 -14 -8 -21 -14 -3 -26 -10 -26 -15 0 -5
-4 -9 -10 -9 -5 0 -10 9 -10 20 0 11 4 20 9 20 5 0 12 8 15 17 4 10 4 14 0 10
-4 -4 -12 0 -18 7 -6 8 -22 17 -36 21 -17 4 -21 3 -12 -3 10 -7 7 -11 -15 -15
-15 -3 -30 -1 -31 4 -2 6 -14 -2 -27 -17 -23 -26 -45 -26 -45 1 0 15 -78 41
-89 29 -3 -4 0 -9 7 -11 10 -4 9 -10 -4 -25 -16 -16 -16 -21 -4 -28 8 -6 32
-10 52 -10 25 0 40 -6 47 -17 6 -10 11 -15 11 -10 0 7 14 -4 67 -52 23 -20 40
-28 55 -24 19 4 20 3 8 -7 -11 -9 -12 -13 -2 -17 6 -2 10 -9 6 -14 -3 -5 -1
-9 4 -9 19 0 20 -51 1 -73 -17 -21 -18 -21 -13 -2 2 11 0 26 -5 34 -8 12 -12
13 -25 1 -9 -7 -19 -10 -23 -6 -4 3 2 13 13 22 10 8 13 13 6 9 -7 -4 -32 3
-55 15 l-42 21 33 -31 c34 -32 34 -37 0 -19 -12 6 -18 7 -14 1 3 -5 -1 -15 -9
-22 -8 -7 -15 -9 -15 -6 0 4 -7 0 -16 -9 -12 -11 -20 -13 -27 -6 -19 19 -33
12 -46 -25 -10 -28 -15 -33 -27 -23 -17 14 -48 4 -38 -12 4 -7 3 -9 -4 -6 -14
9 -39 -1 -46 -19 -3 -8 -2 -12 3 -9 5 3 13 0 16 -6 5 -7 21 -8 42 -4 30 5 35
4 30 -9 -5 -13 -2 -13 18 -4 13 6 22 16 18 21 -4 6 0 8 9 4 9 -3 21 0 27 6 16
16 13 -4 -4 -23 -12 -14 -12 -20 -1 -42 13 -25 13 -27 -7 -30 -14 -2 -21 -10
-21 -21 1 -9 -2 -17 -8 -17 -5 0 -7 -4 -3 -9 6 -11 71 -8 82 3 15 15 25 4 18
-21 -4 -16 -7 -36 -7 -47 1 -10 -9 -27 -21 -37 -12 -10 -19 -19 -14 -20 4 -1
12 -3 17 -4 6 -1 15 -3 21 -4 5 0 7 -7 3 -13 -11 -17 -12 -48 -2 -42 7 5 10
-3 7 -22 0 -4 4 -10 9 -13 5 -3 19 -24 31 -46 18 -33 19 -41 6 -47 -22 -13 -7
-40 15 -28 13 7 21 7 25 0 3 -5 2 -10 -3 -10 -6 0 -15 -13 -21 -30 -11 -34 -5
-39 15 -12 12 16 13 16 14 -4 0 -25 -21 -37 -48 -27 -16 6 -16 5 1 -14 14 -16
15 -22 5 -26 -10 -3 -11 -8 0 -26 6 -11 12 -26 12 -33 0 -7 9 -24 19 -37 13
-17 18 -19 18 -7 0 9 -4 16 -9 16 -4 0 -8 5 -8 10 0 7 6 7 18 1 11 -6 24 -6
33 0 21 13 26 11 32 -11 3 -11 13 -20 22 -20 15 0 15 2 1 15 -9 9 -20 24 -26
33 -8 15 -11 15 -20 2 -6 -10 -10 -11 -10 -2 0 6 -9 12 -20 12 -28 0 -25 17 4
24 29 7 56 -2 56 -18 0 -50 74 -59 78 -10 1 14 5 31 9 37 4 7 6 22 4 35 -1 12
3 22 9 22 7 0 6 5 -2 14 -7 7 -18 12 -24 9 -6 -2 -14 5 -17 16 -3 13 0 21 8
21 7 0 19 7 26 16 12 15 10 16 -23 12 -20 -2 -35 -1 -32 3 2 4 -4 10 -14 13
-11 4 -24 17 -29 29 -10 20 -8 23 14 22 13 0 28 -6 32 -14 6 -9 11 -10 15 -2
4 6 1 11 -6 11 -20 0 25 27 55 32 33 6 42 -4 27 -32 -10 -18 -8 -19 18 -14 21
4 31 2 35 -10 3 -8 2 -18 -3 -21 -13 -8 -32 4 -25 16 4 5 1 9 -4 9 -6 0 -11
-4 -11 -10 0 -5 -6 -7 -14 -4 -8 3 -17 1 -21 -5 -3 -6 1 -11 9 -11 17 0 22
-16 7 -22 -5 -1 -4 -11 4 -21 10 -15 15 -15 26 -5 13 12 59 23 59 14 0 -2 -15
-13 -32 -25 -23 -14 -27 -21 -15 -21 9 0 17 5 17 11 0 8 5 8 15 -1 8 -7 25
-10 40 -6 14 4 25 2 25 -4 0 -5 -9 -10 -20 -10 -11 0 -20 -7 -20 -15 0 -9 9
-15 25 -15 14 0 24 -3 23 -7 -1 -5 3 -18 10 -29 6 -12 8 -25 4 -29 -4 -5 -1
-5 5 -1 8 5 17 -3 25 -21 7 -15 21 -37 30 -47 16 -18 18 -18 18 -2 0 9 4 15 9
11 5 -3 12 3 15 12 3 10 21 28 40 41 37 25 52 58 32 70 -7 4 -18 17 -25 29
-10 20 -9 23 14 29 14 3 25 12 25 20 0 14 12 18 37 15 8 -1 10 5 7 14 -6 15 7
21 19 8 13 -12 57 -9 57 4 0 7 -4 13 -10 13 -5 0 -10 5 -10 10 0 14 15 13 58
-5 26 -11 33 -18 23 -24 -16 -10 -16 -22 -1 -31 9 -6 5 -13 -13 -25 -16 -10
-24 -22 -20 -31 3 -9 0 -14 -8 -12 -17 4 -26 -59 -11 -74 7 -7 8 2 5 26 -5 37
4 45 25 24 9 -9 12 -9 12 2 1 11 4 10 15 -4 8 -10 12 -23 9 -28 -3 -4 2 -15
10 -24 9 -8 16 -12 16 -8 0 3 7 1 15 -6 8 -6 19 -9 24 -6 5 4 12 2 16 -4 3 -5
21 -10 38 -10 l32 -1 -30 -13 c-16 -7 -35 -11 -41 -9 -7 2 -15 -1 -20 -8 -5
-8 -3 -10 5 -4 7 4 22 -2 36 -15 23 -21 27 -22 69 -9 25 7 43 15 41 18 -9 8
16 30 29 25 7 -3 18 5 24 18 l12 23 -6 -22 c-4 -19 -2 -22 12 -16 13 5 15 3 9
-7 -6 -9 -4 -11 4 -5 7 4 11 15 8 25 -4 14 1 16 25 14 26 -3 28 -1 23 17 -5
15 -4 19 4 14 8 -4 10 2 7 19 -5 28 3 33 22 14 9 -9 12 -8 12 7 0 18 1 18 16
3 13 -12 23 -14 41 -7 17 6 22 6 17 -2 -4 -8 0 -7 15 1 12 6 19 16 15 21 -3 6
0 10 7 8 35 -4 51 1 45 17 -3 9 -2 12 4 9 16 -10 71 5 64 17 -4 7 -2 8 4 4 6
-4 21 -2 33 4 20 11 20 12 2 32 l-18 21 32 -18 c31 -18 33 -18 70 1 21 10 41
23 44 27 3 5 10 8 15 7 5 0 18 2 29 5 l20 5 -20 17 c-13 10 -15 14 -4 10 9 -3
16 0 16 9 0 7 -4 11 -9 8 -4 -3 -8 2 -8 11 0 13 4 14 23 4 12 -6 4 5 -18 24
-22 20 -46 36 -54 37 -8 0 -4 -8 10 -21 l24 -21 -25 16 c-14 9 -25 21 -25 28
0 6 -29 31 -65 55 -91 62 -100 70 -94 88 3 8 11 12 16 9 6 -4 5 -10 -3 -15
-11 -7 -10 -9 4 -9 21 0 22 9 0 40 l-17 25 23 -19 c21 -19 21 -19 15 -1 -5 11
-4 16 2 12 6 -3 16 -1 24 5 13 8 12 9 -2 5 -9 -4 -19 1 -22 10 -5 11 -2 14 10
9 13 -5 14 -3 6 7 -6 7 -32 14 -57 15 -25 1 -54 6 -63 12 -14 9 -10 10 16 7
22 -2 36 1 39 10 7 18 20 16 43 -7 12 -12 25 -18 31 -14 17 10 69 16 69 7 -1
-4 -5 -28 -9 -51 l-9 -44 38 4 c29 2 37 0 31 -9 -11 -20 0 -83 14 -83 7 0 15
-6 18 -14 9 -23 87 -56 111 -46 11 5 42 12 69 15 26 3 47 10 47 15 0 4 8 7 18
6 9 -2 26 3 38 11 11 7 24 10 28 6 4 -4 4 1 0 12 -6 16 -5 18 7 7 7 -6 20 -12
29 -12 9 0 11 3 5 8 -22 16 -15 32 14 28 23 -2 28 0 23 12 -3 10 -1 13 6 8 7
-4 12 -2 12 4 0 6 5 8 10 5 6 -4 7 -12 3 -18 -4 -7 1 -5 12 3 10 8 20 14 22
12 8 -6 29 24 25 36 -2 8 7 12 25 12 18 0 23 3 16 8 -10 6 -10 12 3 28 8 10
12 13 8 5 -5 -9 -3 -12 4 -7 7 4 12 14 12 23 0 12 3 13 14 4 11 -9 16 -9 22 0
4 8 3 9 -4 5 -7 -4 -12 -3 -12 1 0 5 14 17 31 27 18 10 40 27 50 37 11 11 19
15 19 9 0 -5 7 -6 17 -3 11 4 14 3 9 -5 -4 -7 -15 -12 -25 -12 -19 0 -41 -18
-41 -34 0 -5 6 -3 13 6 6 9 21 18 32 20 11 2 24 13 30 26 8 17 18 22 47 22 20
0 40 -5 43 -10 4 -6 12 -7 18 -3 8 4 8 2 -1 -9 -10 -13 -9 -16 9 -21 11 -3 18
-10 15 -16 -4 -6 -13 -8 -21 -4 -8 3 -15 0 -15 -7 0 -6 4 -9 9 -6 5 3 26 -13
48 -37 22 -23 47 -48 56 -56 15 -12 17 -11 17 8 0 12 -4 19 -10 16 -5 -3 -10
-1 -10 5 0 18 24 6 36 -18 6 -12 13 -19 16 -16 4 3 14 7 25 9 10 2 19 4 21 5
1 2 8 3 15 4 6 1 11 7 10 13 -2 7 6 10 18 8 31 -6 47 4 42 26 -3 10 -9 19 -14
19 -5 0 -6 7 -3 15 7 18 -22 21 -30 3 -3 -7 -3 -2 0 12 10 42 10 45 -11 42
-19 -3 -19 -3 -2 10 18 13 15 48 -4 48 -5 0 -9 9 -9 21 0 13 4 18 12 13 7 -4
8 -3 4 5 -4 6 -11 9 -16 6 -9 -5 -32 18 -29 31 3 20 -2 26 -15 15 -10 -9 -17
-7 -27 6 -13 17 -13 17 5 3 18 -14 19 -13 13 3 -4 10 -7 24 -7 31 0 14 -37 19
-45 5 -4 -5 -11 -9 -17 -9 -5 0 -2 8 9 18 10 9 17 16 15 15 -3 -1 -13 8 -23
20 -10 12 -18 16 -19 10 0 -7 -8 -13 -17 -13 -14 0 -15 2 -4 9 7 5 10 14 7 20
-4 6 -11 9 -15 6 -9 -5 -61 50 -61 65 0 5 -3 9 -8 7 -4 -1 -28 15 -53 36 -25
20 -51 37 -58 37 -6 0 -11 5 -11 11 0 6 -7 9 -15 5 -8 -3 -15 -1 -15 4 0 6 8
10 18 10 16 1 15 2 -2 15 -14 11 -24 12 -39 4 -12 -7 -17 -7 -13 -1 8 13 -60
56 -74 47 -6 -4 -9 -1 -8 5 4 15 -72 61 -90 55 -8 -3 -10 0 -6 7 5 8 2 9 -9 5
-10 -3 -16 -2 -14 4 1 6 -46 37 -105 68 -60 32 -105 61 -101 65 4 4 0 4 -10 1
-9 -4 -23 0 -32 8 -14 14 -13 16 2 16 10 0 36 4 58 10 22 5 49 8 60 6 11 -2
22 -4 24 -4 2 -1 -4 -10 -13 -20 -17 -18 -17 -19 2 -25 25 -8 52 2 52 21 0 8
5 11 10 8 6 -3 10 1 10 9 0 9 -6 16 -12 16 -7 1 4 7 25 15 22 7 53 12 70 9 24
-3 37 2 53 21 17 20 26 24 44 17 16 -6 19 -11 12 -16 -18 -11 -14 -41 7 -60
18 -17 20 -16 26 3 5 17 9 18 24 9 15 -9 17 -17 11 -39 -6 -20 -5 -26 4 -23
19 7 44 -25 27 -35 -9 -6 -8 -11 4 -21 14 -11 17 -10 22 8 7 29 46 29 72 0 11
-11 18 -24 16 -29 -6 -8 11 -6 38 6 9 4 30 4 45 1 54 -13 97 -14 110 -3 10 8
16 7 23 -4 12 -19 11 -29 -1 -29 -5 0 -10 -7 -10 -15 0 -8 4 -15 9 -15 4 0 24
-15 43 -32 72 -67 88 -79 88 -63 0 8 -10 23 -22 35 l-22 20 34 -6 c19 -4 39
-12 43 -18 6 -8 10 -7 14 2 2 6 9 10 14 7 5 -3 18 -1 29 5 16 9 19 8 13 -7 -5
-12 -2 -15 10 -10 13 5 17 1 17 -16 0 -15 3 -18 9 -9 4 7 12 12 17 11 23 -4
34 3 47 29 7 15 19 26 26 24 7 -1 10 2 6 8 -3 6 -11 8 -16 5 -5 -4 -9 -3 -9 2
0 12 49 33 64 27 7 -3 37 -6 67 -8 30 -1 59 -5 65 -8 19 -11 66 -19 60 -10 -3
5 9 9 26 10 17 0 36 6 41 11 6 6 19 11 28 11 10 0 19 3 21 8 2 4 20 15 40 24
25 12 36 22 32 32 -4 10 3 15 22 18 21 2 30 11 38 36 7 18 14 30 18 27 4 -4 4
-13 1 -21 -4 -10 0 -12 11 -8 9 3 13 11 10 16 -4 6 3 5 15 -2 30 -15 54 4 49
40 -3 19 0 26 13 26 14 0 15 -4 8 -18 -6 -11 -6 -18 0 -18 5 0 7 -10 4 -22 -6
-22 -5 -21 16 4 11 14 21 36 21 48 0 19 2 21 16 9 14 -11 19 -9 35 11 10 14
19 33 19 42 0 13 13 9 67 -23 44 -25 75 -37 88 -33 12 3 15 2 8 -3 -7 -5 11
-23 53 -51 35 -23 64 -39 64 -36 0 4 -8 13 -17 20 -10 7 -13 14 -6 14 6 0 21
-13 33 -30 21 -30 53 -39 65 -20 3 6 12 10 18 10 8 0 7 -4 -2 -9 -22 -14 -22
-40 0 -51 10 -6 19 -8 19 -5 0 16 49 -30 54 -51 8 -30 39 -32 63 -4 21 25 43
26 43 3 0 -10 4 -14 8 -8 10 14 52 17 52 4 0 -5 -5 -7 -12 -3 -7 4 -8 3 -4 -5
4 -6 12 -8 18 -5 6 4 8 1 6 -7 -3 -8 -11 -13 -18 -11 -11 3 -11 0 -1 -12 15
-18 31 -12 31 11 0 10 6 13 17 9 9 -4 21 -1 26 6 6 9 7 8 3 -5 -3 -10 1 -25 9
-33 14 -14 20 -11 16 10 -1 5 1 16 5 25 5 11 9 4 13 -23 3 -22 12 -42 20 -44
10 -3 12 0 8 12 -4 10 -1 16 8 16 8 0 15 5 15 10 0 12 11 13 30 0 13 -8 12
-11 -5 -24 -11 -8 -16 -18 -11 -23 5 -4 11 -2 13 5 3 6 11 12 19 12 9 0 12 -4
9 -10 -3 -6 -1 -10 4 -10 6 0 11 8 11 18 0 13 2 14 9 3 6 -9 18 -11 35 -7 19
5 24 3 20 -7 -3 -9 -14 -12 -30 -9 -13 2 -24 0 -24 -6 0 -6 -10 -12 -22 -15
-21 -3 -21 -4 6 -12 20 -5 31 -4 37 6 6 11 15 7 40 -19 33 -34 60 -44 39 -14
-7 9 2 0 21 -21 29 -33 38 -38 62 -32 15 4 27 11 27 15 0 14 59 68 66 61 4 -3
4 2 1 12 -6 17 -6 17 23 0 29 -17 39 -33 21 -33 -6 0 -13 5 -16 10 -5 8 -11 7
-21 -1 -7 -6 -11 -15 -8 -20 3 -5 -6 -9 -20 -9 -14 0 -28 -5 -32 -12 -5 -8 0
-9 17 -5 13 4 30 7 37 7 6 0 12 7 12 15 0 8 5 15 11 15 5 0 8 -4 5 -9 -7 -10
44 -4 81 10 21 8 22 11 12 31 l-12 23 25 -23 c19 -17 25 -19 25 -7 0 8 -4 15
-9 15 -4 0 -7 11 -6 24 2 18 6 22 14 15 17 -14 27 4 21 39 -2 15 -2 21 0 15 5
-16 15 -16 31 -3 8 7 9 7 3 -1 -5 -6 -5 -27 0 -47 4 -20 5 -40 2 -45 -3 -5 3
-7 13 -5 14 2 20 14 22 42 4 44 30 95 32 60 1 -36 6 -70 13 -82 12 -18 39 -2
34 20 -3 11 4 30 18 46 l23 27 -5 -26 c-3 -15 0 -30 6 -33 7 -4 9 -1 5 8 -5
13 -2 13 19 3 14 -6 23 -16 21 -22 -3 -7 25 -10 83 -9 49 1 78 0 65 -3 -15 -3
-22 -10 -18 -18 3 -8 -10 -19 -35 -29 -52 -21 -66 -20 -81 4 -7 11 -23 20 -36
20 -13 0 -20 -4 -17 -10 3 -6 -3 -10 -14 -10 -11 0 -22 -4 -26 -10 -3 -5 -12
-7 -20 -4 -7 3 -22 1 -32 -4 -16 -10 -15 -12 12 -22 27 -11 28 -13 10 -20 -18
-7 -19 -8 -2 -15 9 -4 17 -11 17 -17 0 -5 -7 -5 -17 1 -13 7 -23 5 -37 -7 -15
-13 -17 -13 -11 -2 8 13 7 13 -9 0 -10 -8 -31 -13 -47 -12 -33 4 -69 -13 -69
-32 0 -7 -9 -21 -20 -31 -24 -21 -19 -28 33 -45 55 -17 46 -32 -17 -28 -43 2
-52 0 -44 -9 7 -9 7 -17 -1 -27 -8 -9 -8 -16 -2 -20 13 -9 2 -36 -14 -36 -7 0
-15 -7 -19 -15 -6 -17 -36 -21 -36 -4 0 5 -5 7 -10 4 -6 -4 -8 -11 -4 -16 3
-6 -3 -13 -14 -16 -17 -4 -18 -8 -9 -18 7 -8 20 -10 32 -5 23 8 44 3 63 -17
18 -18 2 -17 -24 2 -12 8 -24 11 -28 8 -8 -8 54 -37 72 -34 24 4 11 -17 -28
-43 -22 -14 -43 -26 -47 -26 -4 0 -16 -8 -27 -19 -12 -10 -34 -23 -51 -29
l-30 -10 29 -1 29 -1 -29 -25 c-38 -33 -51 -31 -45 8 2 12 -17 8 -33 -8 -8 -9
-19 -15 -23 -14 -20 3 -34 -2 -52 -22 -18 -19 -20 -20 -29 -3 -9 16 -11 16
-26 1 -9 -9 -22 -30 -27 -47 -13 -37 -18 -37 -47 -2 -19 22 -30 27 -53 24 -19
-3 -37 2 -49 13 -22 19 -27 45 -9 45 5 0 8 4 5 8 -5 9 9 12 54 13 21 1 22 2 6
11 -10 5 -28 8 -42 5 -13 -2 -21 0 -18 4 3 5 2 10 -3 10 -4 1 -21 3 -38 5 -16
2 -31 8 -33 14 -2 5 -8 10 -13 10 -6 0 -7 -6 -3 -12 5 -9 2 -9 -9 1 -16 12
-21 9 -18 -12 1 -4 -10 0 -24 9 -30 19 -31 23 -7 23 51 2 53 3 35 23 -9 10
-22 18 -30 18 -7 0 -13 4 -13 10 0 5 -7 7 -15 4 -11 -5 -13 -2 -9 10 4 9 3 16
-2 15 -21 -4 -35 2 -29 11 4 6 11 8 16 5 5 -4 9 -2 9 3 0 15 -48 33 -56 20 -4
-6 -11 0 -18 16 -11 26 -11 26 -24 6 -11 -18 -10 -22 10 -30 59 -24 70 -52 27
-63 -11 -3 -18 -3 -15 1 7 6 -52 46 -91 62 -13 5 -23 15 -23 21 0 6 -6 9 -14
6 -8 -3 -20 2 -28 11 -12 15 -11 16 5 3 11 -9 17 -10 17 -2 0 6 -3 11 -7 12
-44 5 -61 3 -60 -6 1 -5 -6 -10 -15 -10 -9 0 -20 -3 -23 -7 -4 -4 -13 -4 -19
-2 -7 3 -19 -2 -26 -11 -10 -13 -9 -15 7 -15 10 0 28 -7 39 -15 10 -8 29 -15
42 -15 19 0 22 -4 17 -22 -4 -13 -17 -30 -28 -40 -19 -15 -22 -15 -32 -1 -9
12 -16 13 -30 5 -16 -9 -12 -12 32 -25 28 -9 61 -21 73 -27 13 -7 43 -15 69
-19 38 -5 46 -10 47 -29 1 -12 -3 -22 -8 -22 -5 0 -7 -4 -4 -9 9 -13 -40 -42
-59 -35 -20 8 -59 40 -93 78 -15 16 -43 41 -63 55 -35 26 -39 31 -39 52 0 8
-4 8 -12 2 -18 -14 -58 -23 -58 -13 0 5 8 10 18 12 14 3 13 6 -7 17 -14 8 -21
9 -17 2 4 -6 0 -11 -11 -12 -10 0 -13 -3 -6 -5 7 -3 9 -12 6 -20 -4 -11 -8
-12 -19 -3 -8 7 -17 9 -21 5 -4 -3 2 -13 13 -22 18 -14 16 -14 -23 -9 -30 5
-43 3 -43 -5 0 -6 -8 -19 -18 -28 -10 -10 -16 -16 -13 -15 8 5 31 -19 31 -32
0 -28 -38 -23 -60 7 -15 20 -25 26 -30 19 -4 -7 -20 -13 -35 -15 -35 -4 -44
-21 -15 -29 26 -7 25 -19 -2 -36 -19 -12 -23 -11 -34 4 -12 15 -14 15 -34 -5
-27 -27 -18 -41 20 -30 29 8 30 7 28 -18 -3 -26 -2 -26 59 -27 64 0 88 -10 63
-25 -13 -8 -13 -10 1 -10 9 0 20 7 23 16 9 23 51 14 52 -11 1 -11 6 -33 13
-48 18 -45 14 -85 -9 -92 -11 -4 -18 -10 -15 -15 7 -11 -38 -9 -46 2 -3 5 -13
6 -21 3 -22 -8 -29 -52 -11 -67 11 -9 12 -13 1 -20 -8 -6 -2 -7 17 -3 58 12
118 3 113 -18 -4 -19 4 -21 56 -14 27 4 54 3 60 -2 6 -5 20 -5 31 0 17 6 17 8
3 8 -11 1 -18 9 -18 21 0 11 -5 20 -11 20 -6 0 -9 7 -5 15 3 8 1 15 -4 15 -14
0 -12 -24 2 -38 9 -9 5 -12 -20 -12 -18 0 -32 5 -32 10 0 6 -7 10 -15 10 -10
0 -15 10 -15 34 0 19 -5 38 -10 41 -6 4 -10 3 -9 -2 5 -27 -1 -32 -26 -21 -33
15 -32 25 5 33 17 4 30 11 30 16 0 14 100 0 128 -17 12 -8 22 -21 22 -29 0 -8
7 -15 16 -15 8 0 13 4 10 9 -6 9 49 21 99 21 26 0 31 -4 30 -22 -2 -24 -3 -30
-25 -88 -7 -19 -14 -55 -14 -80 -1 -39 2 -45 18 -42 14 3 17 -1 12 -13 -3 -9
-6 -20 -6 -25 0 -4 -9 -10 -20 -13 -11 -3 -22 -17 -25 -33 -3 -16 -10 -37 -16
-46 -13 -25 -12 -28 14 -28 23 0 47 -17 47 -32 0 -4 -7 -8 -15 -8 -8 0 -15 -9
-15 -20 0 -10 -8 -23 -17 -29 -15 -8 -16 -12 -5 -22 15 -16 16 -39 1 -39 -5 0
-7 5 -4 10 3 6 -1 10 -10 10 -9 0 -42 24 -73 54 -56 52 -106 79 -95 50 3 -8 9
-11 14 -8 5 3 9 1 9 -5 0 -29 -81 -13 -166 34 -69 38 -224 153 -224 166 0 5 8
9 18 9 14 0 15 2 2 9 -8 6 -18 7 -24 4 -5 -4 -7 1 -3 10 3 9 2 19 -3 22 -20
12 -9 25 20 25 37 0 39 13 3 29 -20 9 -28 9 -33 1 -13 -20 -45 -7 -44 18 0 16
-3 19 -10 12 -13 -13 -29 -13 -21 0 3 5 0 7 -7 5 -8 -3 -31 13 -52 35 -21 22
-42 40 -47 40 -6 0 -8 4 -5 9 3 5 -4 11 -15 14 -12 3 -18 10 -14 16 3 6 -5 15
-19 21 -14 5 -30 19 -37 32 -13 25 -34 48 -46 51 -4 1 -7 11 -6 22 1 11 -1 14
-4 7 -3 -9 -9 -10 -18 -2 -19 16 -58 -5 -72 -38 -12 -28 -27 -87 -17 -64 9 18
20 15 21 -8 1 -11 -7 -26 -18 -33 -10 -8 -16 -17 -11 -22 4 -4 -6 -6 -23 -3
-27 3 -30 1 -32 -23 -2 -20 3 -28 19 -32 18 -5 19 -8 8 -21 -7 -9 -20 -16 -29
-17 -10 0 -11 -2 -3 -6 15 -6 16 -24 1 -21 -6 2 -14 -3 -16 -9 -3 -7 0 -13 7
-13 12 0 56 -43 95 -94 15 -20 46 -45 69 -56 22 -11 63 -36 91 -55 27 -19 56
-33 65 -31 8 3 31 8 50 11 32 6 33 6 16 -8 -11 -8 -16 -19 -12 -26 12 -18 77
-48 123 -56 22 -3 49 -13 60 -20 22 -17 2 -20 -30 -4 -21 10 -21 10 -2 -6 11
-8 37 -20 59 -26 33 -9 37 -13 25 -24 -8 -7 -36 -20 -64 -29 l-50 -16 50 6
c28 4 52 8 54 10 2 2 12 -1 22 -7 16 -8 17 -14 8 -31 -13 -23 1 -38 36 -38 26
0 52 -58 30 -66 -8 -3 -20 -2 -27 2 -34 21 -95 -10 -171 -88 -37 -38 -40 -58
-11 -58 11 0 12 -4 4 -19 -6 -12 -6 -22 -1 -25 12 -8 41 3 41 15 0 15 38 29
60 21 20 -7 20 -9 -10 -37 -16 -16 -30 -23 -30 -17 0 7 4 12 9 12 5 0 11 7 15
15 4 13 2 13 -14 5 -10 -5 -22 -15 -25 -21 -4 -5 -18 -14 -32 -20 -14 -5 -21
-14 -17 -21 4 -7 3 -8 -4 -4 -11 6 -19 4 -69 -23 -14 -6 -23 -7 -23 -1 0 5 -7
7 -15 4 -8 -4 -13 -10 -10 -14 3 -5 1 -11 -5 -15 -5 -3 -10 -1 -10 4 0 6 -5
11 -11 11 -5 0 -8 -4 -5 -9 3 -4 -20 -16 -50 -26 -47 -15 -58 -15 -65 -4 -5 8
-2 20 8 31 15 17 15 18 -3 19 -10 1 -30 0 -43 -1 -19 -1 -22 2 -17 15 3 9 6
21 6 26 0 5 7 9 15 9 18 0 19 -12 2 -29 -10 -10 -9 -11 5 -6 23 9 30 32 11 39
-21 9 2 36 31 36 17 0 18 2 6 10 -12 8 -12 10 5 10 15 0 17 2 6 9 -9 6 -10 11
-2 15 6 4 11 16 11 27 0 13 11 25 33 34 19 8 39 21 47 29 7 9 17 16 22 16 10
0 38 25 38 34 0 3 -12 6 -27 6 l-27 0 22 23 c19 19 24 20 32 7 8 -13 10 -12
10 3 0 9 -4 17 -8 17 -16 0 -81 -38 -75 -44 4 -3 -5 -6 -18 -6 -21 -1 -22 -2
-8 -13 14 -10 15 -16 4 -30 -14 -19 -30 -23 -19 -4 5 7 1 6 -10 -3 -16 -13
-20 -12 -32 5 -8 10 -14 13 -14 7 0 -16 -25 -15 -39 1 -13 17 4 43 34 50 11 3
3 5 -18 6 -24 1 -36 5 -32 12 4 6 14 8 22 5 8 -3 11 -1 8 4 -12 19 -45 11 -45
-10 0 -12 -7 -20 -17 -21 -11 0 -13 -3 -5 -6 6 -2 12 -9 12 -14 0 -5 -9 -4
-19 3 -11 7 -17 16 -14 22 4 5 -1 7 -10 3 -10 -3 -17 -3 -17 1 0 4 -12 8 -27
7 -25 0 -28 4 -29 35 0 19 3 43 8 53 5 10 5 17 -1 17 -16 0 -27 -32 -25 -70 2
-31 1 -33 -10 -17 -7 9 -21 17 -30 17 -14 0 -15 4 -5 21 6 12 7 19 1 15 -11
-7 -45 28 -36 37 4 3 16 2 28 -4 13 -7 10 -1 -9 15 l-30 25 25 1 c14 1 57 9
95 20 69 18 69 18 41 29 -22 9 -31 9 -37 0 -4 -6 -12 -8 -18 -5 -6 4 -11 2
-11 -3 0 -17 -18 -13 -41 10 -21 21 -23 21 -49 5 -38 -22 -44 -20 -26 6 23 33
19 41 -6 16 -13 -13 -23 -26 -23 -30 0 -3 -3 -10 -8 -14 -4 -4 -7 -3 -7 3 0 5
-13 8 -30 5 -25 -4 -30 -1 -30 16 0 11 -7 28 -16 37 -15 15 -17 14 -28 -7 -14
-28 -41 -35 -50 -13 -3 9 -2 14 2 11 4 -2 14 0 22 5 11 8 4 9 -23 4 -36 -6
-38 -5 -27 14 7 14 7 21 0 21 -5 0 -10 -5 -10 -11 0 -6 -7 -8 -16 -5 -9 4 -23
1 -30 -5 -8 -6 -25 -8 -39 -5 -14 4 -25 2 -25 -3 0 -5 -8 -17 -17 -27 -16 -15
-16 -17 2 -30 10 -7 21 -11 25 -9 12 7 4 -33 -9 -49 -12 -14 -11 -16 7 -16 23
0 38 -15 23 -24 -13 -8 -72 5 -66 14 3 4 -13 3 -35 -2 -22 -6 -40 -15 -40 -20
0 -5 -7 -2 -16 6 -8 9 -21 16 -28 16 -8 0 -19 6 -25 14 -9 11 -5 15 26 21 36
6 112 52 113 68 0 4 -9 7 -19 7 -11 0 -23 5 -26 10 -3 6 -1 10 4 10 6 0 11 5
11 10 0 6 -6 10 -14 10 -8 0 -27 6 -43 14 -81 42 -103 48 -136 36 -18 -6 -48
-24 -67 -40 l-35 -30 30 6 c16 4 42 7 57 7 15 0 26 5 25 10 -1 5 3 11 9 14 14
5 15 -24 2 -69 -13 -44 -20 -46 -40 -16 -11 17 -20 20 -42 14 -15 -4 -24 -10
-21 -15 2 -5 -2 -12 -10 -15 -18 -6 -55 13 -55 29 0 5 -7 2 -14 -8 -12 -16
-14 -16 -20 -2 -5 15 -9 14 -36 -2 -39 -22 -38 -37 0 -29 21 4 29 2 24 -5 -4
-7 -21 -9 -44 -5 -36 6 -39 4 -60 -31 -17 -29 -18 -38 -8 -45 10 -6 7 -10 -9
-14 -13 -4 -23 -13 -23 -20 0 -8 -5 -14 -11 -14 -5 0 -7 5 -4 10 3 6 0 10 -9
10 -17 0 -76 32 -76 42 0 4 -10 18 -23 32 -19 21 -25 22 -40 11 -17 -13 -17
-14 2 -20 12 -3 21 -10 21 -15 0 -18 -22 -21 -45 -6 -20 13 -23 13 -19 2 3 -8
12 -17 20 -20 14 -5 19 -37 8 -49 -4 -3 -14 -2 -23 2 -10 6 -21 4 -29 -5 -7
-8 -9 -14 -5 -14 5 0 14 -13 20 -30 13 -35 12 -35 -27 -15 -17 9 -30 13 -30 9
0 -3 -11 1 -25 10 -22 15 -26 15 -31 2 -4 -11 -12 -13 -29 -6 -19 7 -29 2 -63
-35 -40 -44 -108 -136 -148 -201 -11 -19 -24 -31 -27 -27 -4 3 -7 -2 -7 -12 0
-10 -2 -16 -6 -13 -3 3 -19 2 -37 -2 -23 -5 -37 -2 -49 10 -16 15 -15 16 17
16 18 0 31 -4 28 -9 -9 -15 31 10 51 32 12 13 15 21 7 21 -7 0 15 28 50 61
l63 61 -27 14 c-29 16 -33 24 -16 41 7 7 6 15 -5 25 -8 9 -12 19 -8 23 4 4 -5
5 -20 3 -22 -4 -28 -1 -28 12 0 10 7 24 16 31 15 12 16 11 10 -8 -7 -22 -5
-23 49 -19 31 2 59 7 62 10 4 3 17 6 30 6 13 0 21 4 18 10 -3 6 1 7 9 4 35
-13 13 14 -26 33 -47 23 -99 21 -119 -3 -6 -8 -17 -14 -23 -14 -6 0 -21 -15
-33 -33 -13 -18 -23 -25 -23 -16 0 8 5 20 12 27 17 17 -2 15 -21 -3 -9 -8 -27
-24 -40 -36 -16 -15 -26 -19 -29 -11 -2 7 -8 12 -14 12 -6 0 -8 -7 -4 -15 3
-8 1 -15 -4 -15 -6 0 -10 5 -10 10 0 15 -31 12 -64 -5 -36 -19 -50 -19 -66 0
-7 8 -18 15 -24 15 -6 0 3 -11 19 -25 17 -13 24 -24 18 -25 -7 0 -13 3 -13 8
0 4 -12 15 -26 25 -25 18 -25 18 -60 -8 l-34 -26 22 -19 c26 -22 13 -27 -15
-5 -10 7 -29 11 -43 9 -13 -2 -24 0 -24 5 0 23 -44 -8 -54 -38 -6 -18 -15 -33
-21 -33 -5 0 -19 -7 -29 -16 -15 -13 -18 -14 -12 -2 4 8 -15 -9 -43 -38 -28
-30 -49 -58 -46 -63 4 -5 1 -9 -4 -9 -6 0 -11 5 -11 11 0 6 -7 4 -15 -4 -7 -8
-30 -18 -50 -21 -26 -5 -35 -11 -31 -22 3 -8 -7 -35 -23 -62 -15 -26 -26 -53
-23 -61 3 -8 0 -11 -6 -7 -14 8 -46 -39 -37 -53 3 -7 0 -8 -9 -5 -12 5 -16 0
-16 -20 0 -14 5 -26 10 -26 6 0 10 -7 10 -16 0 -8 -4 -13 -9 -9 -5 3 -16 -4
-24 -15 -16 -23 -117 -42 -117 -22 0 6 -6 9 -13 6 -7 -2 -21 2 -32 10 -18 13
-18 16 -5 42 l15 28 3 -28 c3 -27 4 -27 30 -10 37 23 82 66 82 77 0 5 -13 7
-30 5 -31 -5 -40 5 -17 19 7 4 14 18 14 31 2 48 3 53 15 46 7 -5 9 -2 5 9 -4
10 8 33 34 64 21 26 35 49 30 51 -13 4 -1 44 21 65 10 10 16 22 13 27 -3 6 0
8 7 5 7 -3 37 20 67 50 30 30 59 55 66 55 13 0 75 55 76 69 2 12 5 26 9 39 1
4 2 11 1 16 -1 5 5 6 13 3 9 -4 18 -1 22 5 4 7 3 8 -4 4 -22 -13 -12 13 10 28
15 11 17 16 8 16 -9 0 0 13 20 30 19 16 31 30 25 30 -5 0 -3 5 5 10 11 7 11
10 2 10 -8 0 -10 5 -6 13 4 6 -5 1 -19 -12 -15 -14 -27 -29 -27 -34 0 -5 -10
-20 -22 -32 -30 -31 -44 -48 -46 -60 -1 -5 -8 -11 -15 -11 -6 -1 -18 -2 -24
-3 -7 0 -13 -8 -13 -16 0 -8 -6 -15 -14 -15 -8 0 -21 -8 -28 -18 -7 -10 -24
-19 -37 -19 -14 -1 -39 -17 -57 -38 -31 -33 -53 -47 -39 -25 3 6 -1 10 -9 10
-8 0 -18 -5 -21 -10 -4 -6 -11 -7 -17 -4 -7 4 -8 2 -4 -5 8 -13 -32 -31 -51
-24 -20 8 -5 22 18 18 13 -3 19 0 16 8 -5 13 -9 13 -42 2 -20 -7 -20 -6 -1 9
11 9 16 19 12 23 -4 4 -10 3 -14 -2 -4 -6 -16 -15 -27 -21 -10 -6 -23 -26 -28
-45 -6 -23 -36 -59 -99 -119 -115 -109 -152 -165 -167 -251 -6 -37 -8 -74 -5
-83 4 -11 2 -15 -7 -11 -8 2 -27 -7 -44 -21 -16 -13 -22 -22 -12 -18 13 5 16
2 11 -11 -6 -15 -4 -16 16 -5 18 9 20 14 9 21 -10 6 -6 11 14 18 43 16 55 13
28 -8 -14 -11 -21 -23 -17 -30 6 -9 12 -9 24 1 10 7 5 -1 -10 -17 -15 -17 -32
-43 -38 -60 -8 -21 -13 -26 -19 -16 -5 8 -14 10 -21 6 -9 -6 -9 -10 1 -17 10
-6 6 -7 -11 -2 -14 3 -31 11 -37 16 -10 8 -19 -3 -38 -43 -25 -55 -26 -67 -3
-53 7 5 24 10 36 12 13 1 37 17 53 34 31 35 51 34 21 0 -11 -12 -22 -19 -26
-15 -3 3 -6 -1 -6 -11 0 -16 2 -16 30 1 17 9 30 21 30 25 0 4 5 8 10 8 6 0 10
-7 10 -15 0 -8 -7 -15 -16 -15 -11 0 -14 -5 -10 -16 4 -11 2 -15 -8 -11 -23 9
-38 -14 -18 -29 28 -21 55 -18 47 6 -4 11 -2 20 4 20 10 0 15 -14 12 -32 -1
-10 48 12 78 34 29 22 41 23 41 3 0 -9 6 -12 17 -8 11 4 14 3 9 -6 -5 -7 -14
-10 -20 -8 -7 3 -19 1 -27 -4 -10 -6 -10 -9 -1 -9 19 0 14 -17 -8 -23 -10 -3
-21 0 -24 7 -2 6 -3 1 -3 -10 1 -14 6 -20 14 -17 18 7 16 0 -7 -27 -24 -27
-63 -38 -54 -15 3 7 1 22 -5 32 -9 16 -10 16 -11 2 0 -36 -32 -30 -68 11 -35
40 -57 50 -64 29 -4 -13 -58 5 -58 20 0 5 -9 7 -21 4 -17 -5 -19 -2 -13 21 4
18 2 26 -7 26 -7 0 -10 -3 -6 -6 3 -4 0 -12 -7 -19 -18 -18 -117 -14 -134 5
-8 8 -11 9 -7 3 4 -8 0 -13 -11 -13 -11 0 -15 -6 -11 -20 4 -14 -3 -23 -24
-32 -16 -7 -29 -21 -29 -30 0 -13 -8 -18 -30 -18 -34 0 -37 5 -15 26 19 20 20
41 1 25 -9 -8 -16 -8 -20 -2 -4 5 -2 12 4 16 6 4 8 11 4 16 -3 6 -12 2 -21
-10 -8 -12 -11 -26 -8 -31 6 -9 -27 -16 -50 -10 -5 2 -20 2 -32 2 -27 -2 -29
6 -6 23 15 11 15 14 1 28 -14 14 -18 14 -37 1 -24 -18 -28 -12 -6 10 8 8 11
17 6 20 -5 4 -16 -1 -25 -9 -13 -14 -19 -11 -50 21 -20 20 -34 40 -31 44 2 4
-6 5 -19 3 -17 -4 -27 1 -36 16 -6 12 -15 19 -20 16 -5 -3 -12 0 -15 6 -4 5
-13 8 -21 5 -16 -6 -34 23 -34 54 0 19 -5 21 -47 19 -34 -2 -48 1 -51 11 -14
45 -86 75 -117 50 -12 -10 -16 -9 -21 4 -4 10 -13 15 -21 12 -9 -4 -18 4 -24
24 -6 16 -19 32 -29 35 -10 3 -21 13 -24 22 -6 14 -8 14 -26 -2 -27 -24 -25
-7 2 22 12 13 17 23 11 23 -6 0 -13 -7 -17 -15 -3 -9 -12 -12 -22 -8 -16 6
-16 7 0 19 14 10 7 11 -41 8 -48 -3 -60 0 -81 19 -13 12 -27 31 -31 41 -6 15
-18 20 -48 20 -36 1 -48 8 -94 55 -33 33 -49 56 -41 58 13 5 7 23 -9 23 -6 0
-8 -4 -4 -9 3 -6 -3 -9 -14 -8 -10 0 -17 6 -14 13 2 6 -10 16 -26 22 -38 14
-39 20 -4 17 34 -2 79 -20 88 -34 10 -18 24 -12 22 9 -1 11 -5 20 -10 20 -5 0
-3 8 4 17 11 15 11 16 -1 5 -27 -24 -48 -15 -48 22 0 41 21 53 54 31 28 -18
34 -19 34 -4 0 16 -24 36 -38 31 -16 -5 -16 15 1 21 6 3 -6 5 -28 5 -22 0 -55
3 -72 6 -42 7 -42 -6 -1 -25 22 -9 34 -22 36 -38 2 -15 0 -21 -7 -17 -6 4 -11
3 -11 -3 0 -5 6 -12 12 -15 7 -3 4 -4 -7 -3 -11 2 -19 8 -18 15 2 6 -4 9 -11
6 -8 -3 -12 -12 -9 -21 5 -13 3 -13 -15 -4 -11 6 -27 8 -36 5 -16 -6 -40 28
-28 41 4 5 1 5 -6 1 -9 -6 -12 -349 -12 -1662 l0 -1654 6725 0 6725 0 0 1920
c0 1345 -3 1920 -11 1920 -5 0 -7 -4 -4 -10 3 -5 -1 -10 -10 -10 -9 0 -13 5
-9 11 5 8 2 9 -10 2 -20 -11 -76 -5 -76 8 0 5 -7 9 -15 9 -8 0 -15 -4 -15 -9
0 -9 -19 -8 -82 5 -16 3 -28 10 -28 16 0 6 -9 8 -20 5 -10 -3 -24 1 -31 9 -9
12 -6 13 17 9 16 -2 89 -7 162 -9 102 -4 132 -2 132 7 0 9 -18 12 -60 11 -40
0 -64 4 -71 13 -15 17 -29 17 -29 0 0 -9 -10 -12 -30 -9 -32 5 -52 22 -26 22
9 0 13 6 10 14 -4 12 1 13 30 6 20 -4 38 -4 41 0 5 7 75 3 84 -5 2 -3 -8 -5
-23 -5 -16 0 -25 -4 -21 -10 10 -16 42 -11 49 7 5 11 0 22 -11 31 -10 7 -19 9
-20 5 -2 -4 -54 -7 -115 -7 -73 1 -105 -1 -90 -7 12 -4 29 -6 37 -3 8 4 15 1
15 -5 0 -6 -4 -11 -10 -11 -5 0 -10 -7 -10 -15 0 -13 -10 -14 -57 -9 -58 7
-84 11 -93 14 -3 1 -28 2 -57 1 -28 -1 -54 2 -57 7 -3 5 25 10 62 11 37 1 76
4 87 6 11 2 26 4 33 4 6 1 12 5 12 10 0 5 -19 7 -42 4 -31 -5 -39 -3 -33 6 6
10 3 11 -15 1 -31 -17 -39 -2 -10 20 13 10 47 21 75 24 78 9 326 5 319 -5 -3
-5 2 -9 10 -9 24 0 22 106 -1 133 -17 19 -17 20 0 14 15 -6 17 2 17 72 0 79 0
79 -30 90 -17 5 -28 6 -25 1 3 -5 -3 -9 -12 -8 -10 0 -31 -2 -48 -5 -16 -3
-52 -8 -80 -12 -27 -4 -57 -9 -65 -12 -8 -4 -19 -5 -24 -4 -5 1 -13 -4 -17
-11 -7 -11 -9 -11 -9 0 0 7 -5 10 -10 7 -6 -4 -10 -3 -9 2 1 4 -1 16 -6 26 -5
13 -11 15 -20 7 -15 -12 -77 -16 -94 -6 -7 5 -10 2 -9 -6 2 -8 -4 -12 -14 -10
-10 2 -18 -2 -18 -8 0 -6 -5 -8 -10 -5 -7 4 -6 14 2 28 10 20 9 21 -5 9 -13
-11 -17 -10 -26 5 -14 23 -14 8 -1 -18 11 -20 11 -20 -55 -24 -11 -1 -26 -4
-33 -9 -6 -4 -12 -2 -12 3 0 11 13 15 38 12 6 -1 12 3 12 8 0 6 7 8 15 5 8 -4
15 -1 15 4 0 20 -20 23 -52 6 -22 -11 -33 -13 -36 -5 -2 7 -9 8 -22 1 -10 -5
-25 -7 -33 -4 -8 3 -18 1 -22 -5 -3 -6 -12 -11 -18 -11 -7 0 1 9 17 19 17 11
33 18 38 15 4 -3 8 0 8 5 0 6 11 11 25 11 18 0 23 -4 19 -15 -5 -11 -2 -13 10
-9 9 4 14 9 11 12 -3 4 9 12 27 18 30 11 28 12 -35 10 -43 -2 -72 -8 -77 -16
-5 -7 -13 -9 -21 -4 -19 11 -69 15 -69 5 0 -5 -6 -9 -12 -8 -33 1 -49 -4 -43
-13 3 -6 1 -10 -4 -10 -6 0 -11 7 -11 15 0 14 -3 13 -24 -2 -13 -10 -22 -20
-20 -22 2 -2 10 1 18 8 11 9 15 7 19 -10 4 -14 11 -20 21 -16 8 3 18 2 21 -3
4 -6 -7 -10 -24 -10 -17 0 -31 -4 -31 -8 0 -4 -17 -7 -37 -6 -24 1 -37 6 -35
14 1 6 -3 10 -10 7 -7 -2 -12 -10 -10 -17 2 -11 0 -11 -11 -1 -12 9 -18 8 -30
-4 -14 -14 -17 -14 -26 2 -6 10 -11 13 -11 7 0 -7 -16 -15 -35 -18 -20 -4 -33
-11 -30 -16 3 -4 -3 -6 -12 -4 -10 3 -35 -4 -55 -14 -26 -14 -40 -16 -47 -9
-8 8 -11 6 -11 -5 0 -9 -10 -18 -22 -21 -12 -4 -19 -9 -16 -12 3 -4 16 -2 27
5 15 7 21 7 21 0 0 -17 -29 -23 -55 -12 -20 9 -26 8 -33 -5 -7 -11 -20 -14
-49 -12 -36 4 -39 2 -36 -16 3 -14 2 -16 -4 -7 -7 9 -15 7 -33 -10 -14 -13
-28 -22 -33 -20 -5 1 -6 -2 -2 -8 10 -16 -26 -24 -48 -11 -14 10 -22 10 -31 1
-8 -8 -6 -9 8 -4 13 5 17 4 12 -4 -4 -7 -14 -12 -22 -12 -8 0 -14 -4 -14 -9 0
-5 -11 -12 -25 -15 -29 -7 -24 -32 9 -47 18 -8 16 -9 -7 -4 -21 4 -27 2 -21
-6 4 -8 3 -9 -5 -5 -6 4 -9 12 -6 17 8 12 -4 49 -16 49 -5 0 -9 -7 -9 -15 0
-8 -4 -15 -9 -15 -5 0 -18 -3 -28 -6 -10 -3 -7 1 7 10 21 13 22 15 5 12 -32
-5 -55 -17 -50 -26 3 -5 1 -11 -5 -15 -5 -3 -10 -1 -10 4 0 6 -5 11 -11 11 -5
0 -7 -5 -3 -12 5 -8 2 -9 -11 -4 -12 4 -26 -1 -42 -16 -26 -24 -41 -29 -95
-31 -20 -1 -32 -5 -26 -8 6 -4 2 -10 -11 -14 -11 -3 -25 -3 -31 0 -6 4 -9 1
-8 -7 2 -8 -7 -13 -24 -13 -14 1 -24 -3 -22 -7 10 -15 -7 -30 -21 -18 -15 13
-69 -5 -60 -20 3 -5 8 -10 11 -10 3 0 2 4 -1 10 -3 5 1 10 10 10 22 0 13 -24
-11 -29 -10 -2 -22 -8 -26 -15 -6 -8 -8 -7 -8 2 0 10 -5 10 -20 2 -15 -8 -20
-8 -20 2 0 9 -3 9 -9 -2 -6 -8 -7 -18 -5 -22 3 -4 -2 -5 -10 -2 -9 3 -14 10
-11 14 8 14 -52 -19 -65 -35 -7 -8 -17 -12 -23 -8 -6 3 -7 1 -3 -5 4 -7 1 -13
-6 -13 -7 -1 -26 -3 -43 -4 -47 -4 -48 -4 -37 -17 8 -10 4 -13 -14 -14 -22 -2
-23 0 -12 15 12 14 11 15 -4 2 -10 -7 -15 -18 -11 -24 4 -6 -4 -8 -22 -5 -21
4 -29 1 -32 -12 -6 -23 -78 -74 -92 -66 -5 4 -12 2 -16 -4 -3 -5 1 -10 9 -10
30 0 16 -17 -28 -34 -24 -9 -48 -16 -52 -15 -24 6 -46 -20 -84 -97 -22 -46
-46 -84 -53 -84 -23 0 -112 -52 -148 -87 -21 -20 -44 -33 -55 -31 -11 2 -18
-2 -17 -9 2 -7 -2 -24 -7 -39 -8 -19 -15 -24 -27 -19 -10 3 -14 3 -11 -1 9 -8
-20 -65 -41 -81 -9 -6 -24 -14 -34 -17 -15 -4 -16 -2 -6 10 7 9 8 14 1 14 -6
0 -15 -8 -21 -17 -7 -14 -13 -15 -22 -6 -6 6 -17 9 -24 7 -7 -3 -16 0 -21 7
-5 9 -2 10 9 6 9 -3 19 -2 22 2 2 5 -5 11 -16 14 -13 4 -18 10 -13 18 4 7 3
10 -3 6 -13 -8 -15 -65 -2 -72 5 -4 9 -11 9 -17 0 -7 -5 -6 -15 2 -8 6 -18 9
-23 6 -5 -3 -18 3 -29 14 -12 10 -24 16 -27 13 -3 -4 -6 1 -6 10 0 9 -5 19
-12 23 -6 4 -9 3 -5 -2 3 -5 -5 -14 -18 -21 -14 -6 -23 -8 -22 -4 1 3 -7 20
-17 37 -14 23 -25 30 -51 31 -18 1 -43 7 -56 14 -13 7 -27 13 -30 12 -3 -1 -6
5 -6 13 0 7 4 14 9 14 4 0 8 -5 8 -11 0 -6 7 -8 16 -5 8 3 25 1 37 -5 l22 -11
-21 21 c-14 15 -34 22 -62 24 -39 1 -50 17 -12 17 10 0 22 5 26 11 3 6 15 8
26 6 12 -4 18 -1 15 6 -5 14 -49 17 -58 4 -9 -12 -62 0 -54 12 3 5 -1 12 -7
14 -8 3 -6 6 5 6 9 1 17 -3 17 -8 0 -5 7 -11 14 -14 10 -4 13 -1 10 8 -3 7
-13 16 -22 20 -14 5 -14 7 -2 16 11 7 9 8 -10 7 -14 -2 -33 -14 -42 -28 -15
-21 -18 -22 -18 -6 0 14 -5 17 -21 13 -13 -3 -19 -1 -16 6 5 13 11 13 40 2 10
-4 17 -3 17 4 0 11 -26 15 -64 11 -12 -1 -32 13 -50 35 l-31 36 -21 -20 c-12
-11 -25 -17 -28 -14 -3 3 7 17 22 29 24 22 25 24 7 25 -15 0 -13 3 8 11 21 7
32 7 40 -1 9 -9 8 -11 -5 -6 -11 4 -18 2 -18 -4 0 -15 33 -14 49 2 10 10 11 9
6 -3 -4 -11 1 -16 13 -17 10 -1 19 5 20 13 1 8 3 21 4 29 1 11 8 13 21 9 14
-4 25 1 38 17 15 20 20 22 31 10 11 -12 10 -13 -3 -8 -13 4 -16 1 -11 -16 3
-12 7 -16 10 -9 2 7 7 10 12 7 5 -3 15 2 24 11 9 8 20 12 26 9 5 -3 10 -1 10
4 0 17 25 13 43 -7 13 -15 14 -21 4 -32 -10 -12 -9 -12 5 -1 10 7 15 18 11 24
-4 6 4 8 20 5 30 -6 26 9 -7 23 -21 9 -21 10 2 5 12 -2 22 -1 22 3 0 4 12 6
28 5 38 -3 39 -3 22 -14 -9 -6 -10 -10 -3 -10 6 0 15 5 18 10 4 6 10 8 15 5 5
-3 11 3 14 13 4 11 18 24 32 31 19 8 24 8 18 0 -15 -24 16 2 36 31 23 32 21
39 -4 14 -9 -8 -16 -11 -16 -5 0 6 10 19 22 31 12 11 17 20 11 20 -6 0 -20 3
-30 6 -15 5 -15 4 -3 -5 8 -5 12 -13 8 -16 -9 -9 -50 14 -43 24 5 9 -16 21
-44 27 -8 1 -17 8 -21 15 -4 6 -12 9 -18 5 -5 -3 -13 1 -16 10 -4 11 -1 14 13
9 22 -7 54 35 50 68 -2 12 3 32 10 45 11 20 9 25 -11 42 -13 10 -20 22 -16 26
4 4 14 1 22 -5 28 -24 34 -1 8 27 -16 16 -30 23 -34 17 -4 -5 0 -13 10 -17 15
-6 15 -7 1 -7 -9 -1 -19 -8 -23 -16 -3 -8 -15 -15 -27 -15 -18 0 -19 2 -9 15
7 8 16 12 21 9 13 -8 11 10 -2 23 -16 16 24 35 56 27 14 -3 25 -2 25 2 0 5 10
20 21 34 l20 25 -7 -25 c-4 -14 -12 -28 -18 -32 -6 -4 -8 -10 -4 -13 3 -3 13
1 21 10 18 18 34 19 39 3 6 -17 45 -20 52 -3 3 8 10 15 16 15 6 0 8 -4 5 -10
-3 -6 1 -7 9 -4 19 7 21 20 5 30 -6 3 -18 -1 -26 -9 -10 -10 -21 -13 -32 -7
-9 5 -25 11 -36 15 -19 6 -19 7 -2 16 12 7 15 15 9 22 -13 16 -11 48 2 44 6
-2 16 -21 23 -43 6 -21 12 -31 12 -21 1 9 5 17 11 17 11 0 9 28 -3 47 -11 18
13 52 32 45 14 -5 14 -4 2 11 -12 16 -16 16 -35 3 -12 -8 -20 -19 -19 -25 2
-6 -4 -7 -14 -4 -11 5 -14 3 -8 -6 5 -10 2 -11 -14 -6 -12 4 -22 2 -22 -4 -1
-6 -2 -17 -3 -23 0 -7 -6 -13 -13 -13 -6 0 -15 -4 -20 -9 -4 -5 -3 -6 4 -2 6
3 14 2 17 -3 3 -5 -1 -12 -10 -15 -27 -10 -36 -7 -31 13 3 12 -1 22 -10 25
-10 4 -13 13 -8 24 5 13 4 14 -6 5 -10 -10 -9 -15 1 -28 7 -8 8 -15 2 -15 -9
0 -20 18 -23 38 0 4 -5 13 -11 19 -16 20 -29 4 -17 -20 12 -22 12 -22 -10 -3
-18 16 -25 17 -46 8 -14 -7 -29 -20 -32 -29 -12 -31 -27 -38 -63 -32 -19 4
-29 7 -22 8 7 0 11 4 9 9 -3 4 7 7 21 7 15 0 29 5 31 10 2 6 10 15 17 20 10 8
10 12 -1 22 -11 10 -17 9 -27 -6 -8 -11 -25 -21 -38 -23 -17 -2 -26 -10 -28
-25 -3 -21 -15 -27 -52 -25 -8 0 -18 -5 -22 -11 -5 -8 -8 -8 -8 3 -1 12 -3 11
-11 -2 -5 -10 -15 -18 -21 -18 -6 0 -3 9 7 20 10 11 22 20 28 20 5 0 22 11 39
25 16 14 26 25 23 25 -4 0 -1 8 6 17 12 15 12 16 -4 10 -9 -3 -17 -2 -17 4 0
6 -5 7 -10 4 -6 -4 -7 -12 -4 -18 5 -8 3 -8 -6 0 -16 15 -8 25 21 27 12 0 26
8 32 17 13 21 -20 56 -48 51 -18 -3 -19 -2 -2 8 15 10 16 13 3 26 -14 13 -13
18 3 45 10 16 32 40 49 53 25 18 29 25 19 36 -10 10 -8 10 11 0 13 -6 26 -9
30 -6 3 3 2 6 -2 6 -4 0 0 7 8 16 9 8 16 27 16 40 0 14 7 38 15 54 9 17 16 32
16 35 4 26 13 44 20 39 5 -3 6 -10 3 -16 -5 -7 -1 -9 9 -5 10 3 17 3 17 -1 0
-4 9 -8 20 -8 13 0 16 4 10 10 -13 13 -13 43 0 48 5 2 10 18 12 36 2 27 6 32
27 32 13 0 21 3 18 7 -8 7 29 36 53 41 47 10 70 11 65 2 -3 -6 1 -7 10 -4 8 4
22 1 29 -5 11 -9 16 -9 22 0 5 8 3 9 -6 4 -9 -5 -11 -4 -6 3 4 7 13 12 21 12
28 0 41 68 16 88 -15 12 -14 13 2 8 10 -3 25 -6 33 -6 9 0 12 -4 9 -10 -3 -6
1 -7 9 -4 8 3 18 14 21 25 4 10 15 19 25 19 13 0 17 5 14 15 -5 11 -2 13 12 8
12 -4 15 -3 10 5 -4 7 -1 12 8 12 18 0 21 16 6 25 -5 3 -10 1 -10 -4 0 -6 -9
-11 -21 -11 -12 0 -19 5 -16 13 2 6 12 11 22 9 10 -2 14 1 10 7 -3 7 0 8 10 5
11 -5 14 -2 9 12 -4 13 -3 15 3 6 5 -7 17 -10 26 -6 18 7 23 24 7 24 -5 0 -10
4 -10 10 0 5 8 7 18 3 14 -5 15 -3 5 8 -7 7 -13 20 -13 29 1 12 2 12 11 -3 13
-22 30 -22 23 1 -5 16 -5 16 9 0 18 -23 31 -23 23 -2 -5 14 -4 15 8 5 11 -9
15 -8 20 5 4 10 1 21 -6 25 -9 6 -8 10 6 15 10 4 21 2 25 -5 4 -7 8 1 8 18 0
19 -5 27 -13 24 -6 -2 -15 0 -19 6 -8 13 34 15 67 2 16 -6 29 -5 41 4 15 11
16 15 2 43 -9 16 -23 33 -32 37 -10 3 -14 3 -10 -1 11 -11 -33 -53 -49 -47 -8
3 -26 1 -41 -5 -16 -5 -38 -6 -51 -1 -20 8 -22 6 -18 -9 5 -15 1 -18 -16 -17
-16 1 -22 7 -20 20 3 16 1 17 -12 6 -13 -11 -20 -11 -40 3 -14 8 -52 18 -86
21 -34 3 -66 7 -71 10 -4 3 -16 -3 -25 -14 -9 -10 -23 -17 -31 -14 -15 6 -45
-26 -37 -39 3 -5 0 -8 -5 -8 -6 0 -11 6 -11 14 0 9 -11 13 -33 12 -23 -2 -32
-7 -31 -19 1 -9 -3 -15 -8 -14 -6 1 -13 -4 -15 -10 -3 -7 0 -13 7 -13 6 0 8
-5 4 -12 -5 -7 7 0 25 15 25 20 37 25 45 17 8 -8 7 -13 -4 -20 -10 -7 -11 -10
-2 -10 6 0 12 -5 12 -10 0 -6 -6 -10 -12 -9 -30 4 -58 -2 -58 -12 0 -5 5 -7
12 -3 8 5 9 2 5 -10 -5 -13 -3 -17 7 -13 9 4 17 -1 19 -11 3 -11 5 -8 6 8 1
23 2 23 18 8 15 -16 15 -19 -1 -42 -9 -14 -12 -26 -6 -26 5 0 10 4 10 8 0 4 9
8 20 9 14 1 20 -4 20 -18 0 -16 -6 -19 -35 -16 -19 2 -33 1 -32 -2 4 -14 -56
-120 -65 -115 -6 4 -6 10 1 17 6 6 11 16 11 21 0 6 -5 5 -12 -2 -7 -7 -17 -12
-22 -12 -6 0 -4 5 4 10 12 8 12 12 2 18 -10 7 -7 13 12 25 18 12 26 13 29 4 3
-6 4 -2 4 11 -1 13 -6 21 -13 18 -7 -3 -15 2 -18 10 -9 23 -8 26 12 20 10 -4
27 1 38 9 17 13 17 14 2 15 -10 0 -18 -4 -18 -10 0 -5 -4 -10 -10 -10 -5 0 -7
6 -4 13 7 20 -36 14 -51 -6 -14 -19 -61 -24 -49 -5 4 7 3 8 -4 4 -15 -9 -15
-11 4 -31 16 -15 16 -16 -2 -13 -13 2 -21 -6 -29 -30 -6 -18 -15 -29 -19 -25
-5 5 -5 -3 -1 -16 5 -17 4 -22 -6 -19 -8 3 -23 -4 -33 -14 -11 -10 -27 -16
-35 -13 -8 3 -25 -5 -39 -17 -20 -18 -24 -19 -19 -5 4 9 2 17 -3 17 -6 0 -10
-4 -10 -10 0 -5 -9 -18 -21 -29 -13 -12 -18 -25 -14 -33 6 -10 5 -10 -5 -1 -7
6 -9 17 -5 24 5 7 9 25 10 41 2 22 -1 28 -12 24 -8 -3 -17 -6 -19 -6 -3 0 -2
-5 2 -12 4 -7 3 -8 -4 -4 -6 4 -8 14 -5 24 6 15 5 16 -12 2 -17 -14 -18 -13
-12 4 5 13 3 17 -7 13 -26 -10 -11 20 29 56 l39 36 -24 10 c-22 9 -23 10 -4
10 11 1 29 8 40 17 10 8 12 12 4 8 -12 -6 -13 -4 -2 7 17 18 15 30 -3 23 -11
-5 -13 -2 -9 10 3 9 13 16 22 16 12 0 12 4 -4 22 -17 19 -17 21 -1 15 20 -7
21 -3 7 24 -7 13 -7 19 0 19 5 0 10 5 10 11 0 5 -4 7 -10 4 -5 -3 -10 -2 -10
4 0 6 -8 8 -17 4 -13 -4 -12 -1 4 11 30 23 20 53 -18 51 -20 -1 -26 2 -19 9 5
7 5 17 0 26 -8 12 -10 12 -10 -4 0 -11 -3 -16 -7 -13 -3 4 -5 36 -4 71 1 36
-3 67 -9 71 -5 3 -11 16 -11 28 -1 17 -2 18 -6 5 -2 -10 -9 -18 -14 -18 -5 0
-9 -7 -9 -15 0 -8 -4 -15 -10 -15 -5 0 -10 9 -10 21 0 12 -5 19 -13 17 -6 -3
-12 -10 -12 -15 0 -6 -4 -15 -9 -20 -6 -5 -6 -2 -1 6 6 11 4 13 -8 8 -9 -3
-18 1 -21 9 -10 26 -7 34 12 35 13 0 12 3 -5 11 -13 6 -23 17 -23 25 0 8 4 11
10 8 6 -3 7 1 3 10 -4 12 -8 13 -13 5 -6 -9 -10 -9 -16 2 -10 17 -124 31 -124
16 0 -4 5 -8 11 -8 8 0 8 -4 -1 -15 -6 -8 -9 -19 -5 -24 3 -6 -6 -21 -21 -33
-14 -13 -30 -34 -35 -47 -6 -15 -15 -21 -25 -17 -10 4 -13 2 -8 -7 4 -6 -3 -2
-15 11 -12 12 -24 22 -26 22 -5 0 2 -37 10 -50 3 -6 -1 -13 -10 -16 -10 -4
-13 -13 -10 -25 5 -14 2 -17 -9 -13 -9 3 -16 1 -16 -5 0 -7 -9 -32 -20 -57
-14 -30 -27 -44 -40 -44 -10 0 -22 -4 -25 -10 -9 -14 -46 -12 -123 6 -70 18
-98 31 -60 30 12 -1 23 4 23 11 0 6 4 15 9 20 5 5 6 3 2 -5 -9 -15 40 -35 73
-29 13 3 37 1 53 -3 23 -7 33 -4 59 20 22 20 27 29 17 33 -10 4 -10 6 0 6 7 1
10 6 7 11 -3 6 -1 10 5 10 6 0 8 5 4 11 -8 14 -34 -29 -27 -47 2 -6 -3 -14
-11 -17 -10 -4 -16 -1 -16 7 0 8 -8 17 -17 20 -32 11 -63 33 -57 39 3 3 -6 4
-20 3 -14 -2 -34 3 -43 10 -16 12 -16 12 5 7 19 -4 21 -2 16 13 -12 32 -15 35
-29 24 -9 -7 -15 -7 -22 2 -14 19 -8 89 8 99 12 7 12 9 0 9 -11 0 -10 4 5 16
19 15 19 16 -1 10 -19 -6 -19 -6 -1 9 12 9 17 22 13 35 -3 14 3 30 20 48 l25
27 -22 3 c-20 3 -20 5 -4 16 12 9 15 20 10 39 -3 15 -11 26 -17 24 -6 -1 -16
6 -22 15 -9 13 -7 21 7 37 10 11 20 39 23 63 3 24 12 47 19 51 8 4 14 13 14
18 0 19 55 66 90 77 19 6 56 14 83 18 43 6 47 5 47 -14 0 -24 36 -53 55 -46 7
3 16 -4 20 -15 7 -22 21 -26 43 -13 10 7 8 14 -8 35 -12 15 -16 28 -10 32 5 3
10 2 10 -2 0 -5 13 -14 29 -20 32 -12 53 -1 44 23 -3 8 1 14 11 14 9 0 16 4
16 9 0 5 14 14 31 20 40 14 49 14 49 0 0 -17 46 -53 83 -65 9 -4 17 -12 17
-19 0 -7 19 -20 43 -28 36 -12 42 -18 40 -41 -2 -25 0 -26 33 -20 22 4 34 2
34 -5 0 -7 9 -9 24 -5 18 4 33 -3 61 -29 32 -30 95 -56 108 -45 2 2 11 -3 19
-10 15 -12 127 -10 148 3 5 3 30 -8 56 -25 39 -25 57 -29 107 -29 33 1 62 -3
66 -8 12 -18 85 -12 108 10 15 13 39 21 70 23 61 3 116 17 149 39 34 22 69 13
86 -23 11 -21 20 -26 42 -24 16 2 39 10 52 18 19 13 30 14 58 4 28 -9 40 -8
64 4 16 8 32 22 35 30 5 11 15 14 37 10 18 -4 30 -2 30 4 0 6 17 16 38 22 33
9 39 8 51 -10 9 -13 25 -20 47 -20 30 0 34 3 34 28 0 34 45 72 114 95 69 23
116 23 116 -2 0 -10 7 -24 15 -31 9 -7 13 -20 10 -29 -3 -9 6 -1 21 17 25 31
28 32 92 30 37 -1 73 -7 81 -12 10 -8 15 -7 18 2 3 6 11 12 20 12 12 0 14 9 8
52 -10 67 -26 84 -65 68 -25 -10 -32 -9 -51 9 -12 11 -35 24 -50 30 -25 9 -29
7 -29 -8 0 -10 -6 -23 -12 -28 -19 -15 -65 -21 -80 -12 -10 7 -9 9 5 9 10 0
17 8 17 20 0 11 7 20 15 20 19 0 19 21 0 46 -16 21 -20 38 -6 30 5 -3 12 2 15
11 5 13 9 14 15 5 6 -10 11 -10 21 3 11 13 9 15 -10 15 -19 0 -20 2 -10 15 7
8 22 15 35 15 12 0 25 3 28 7 4 3 64 7 135 9 74 1 119 -1 107 -6 -11 -5 -30
-9 -42 -9 -17 -1 -24 -9 -29 -36 -3 -19 -3 -50 0 -69 4 -20 2 -37 -4 -41 -18
-11 -11 -34 13 -37 16 -2 22 -10 22 -28 0 -14 5 -25 10 -25 6 0 15 -4 22 -8 6
-4 28 4 49 18 20 14 41 25 45 25 5 0 8 5 7 12 -2 6 29 29 67 50 39 21 80 49
92 63 12 14 26 25 31 25 16 0 42 48 36 64 -3 9 0 18 8 21 21 8 22 55 1 55 -14
0 -13 3 5 20 12 12 22 26 22 33 0 17 55 67 74 67 17 0 19 1 118 84 37 30 68
50 70 44 5 -14 78 11 78 27 0 12 166 74 219 82 20 3 49 13 66 21 21 11 30 11
33 3 3 -8 8 -9 17 -1 9 7 16 6 25 -5 12 -14 15 -13 30 10 l17 26 17 -26 c14
-22 20 -24 32 -14 11 9 18 9 26 1 7 -7 20 -12 30 -12 10 0 26 -5 36 -11 14 -9
26 -7 57 10 43 23 123 28 155 11 13 -7 21 -7 25 0 4 6 11 8 16 5 5 -4 9 128 9
338 l0 344 -57 8 c-32 3 -66 10 -76 14 -16 6 -16 8 4 30 15 16 28 21 43 16 11
-3 36 -7 53 -9 l33 -4 0 732 c0 415 -4 725 -9 717 -6 -10 -34 -14 -98 -15 -70
-1 -95 -5 -118 -20 -17 -11 -41 -21 -54 -22 -13 -2 -31 -9 -40 -17 -11 -11
-41 -15 -101 -16 -64 0 -87 -4 -96 -15 -6 -9 -17 -16 -25 -16 -8 0 -10 -3 -3
-10 13 -13 59 -15 112 -6 37 7 48 4 80 -17 20 -14 47 -28 60 -32 24 -7 29 -29
10 -42 -7 -4 -42 -15 -78 -23 -54 -14 -65 -20 -66 -38 -2 -27 -59 -82 -88 -83
-11 0 -30 -4 -41 -8 -11 -5 -33 -4 -50 1 -16 6 -36 12 -44 14 -11 3 -10 9 4
30 9 14 13 30 8 34 -4 4 -36 3 -70 -3 -56 -10 -65 -9 -83 8 -11 10 -20 24 -20
32 0 27 -68 46 -137 38 -51 -5 -69 -12 -88 -33 -31 -33 -21 -53 37 -75 27 -11
50 -28 61 -47 10 -17 22 -30 28 -30 5 0 9 -9 9 -19 0 -11 7 -27 16 -36 18 -18
12 -45 -10 -45 -8 0 -17 -4 -20 -9 -4 -5 4 -7 16 -3 15 4 19 2 14 -7 -5 -7 1
-22 15 -37 12 -13 17 -24 11 -24 -7 0 -12 5 -12 11 0 7 -12 0 -26 -15 -15 -14
-37 -26 -50 -26 -43 0 -74 -18 -74 -43 0 -13 -11 -36 -25 -51 -26 -28 -37 -33
-30 -13 3 6 1 17 -3 22 -12 17 -59 38 -70 31 -5 -3 -24 2 -42 10 -29 15 -30
18 -16 32 14 14 10 19 -37 51 -29 20 -74 41 -102 46 -43 9 -59 7 -120 -14 -92
-31 -102 -41 -80 -75 17 -26 20 -27 86 -20 60 6 69 4 69 -9 0 -9 11 -24 25
-33 17 -11 25 -26 25 -44 0 -29 -14 -37 -120 -72 -44 -15 -46 -15 -64 9 -10
14 -31 29 -46 34 -15 6 -32 21 -38 34 -9 18 -19 25 -41 25 -17 0 -34 7 -39 16
-8 15 -10 15 -15 0 -5 -13 -15 -15 -47 -10 -33 5 -43 3 -54 -12 -15 -19 -20
-20 -216 -28 -52 -2 -108 -9 -124 -15 -49 -20 -187 -23 -221 -4 -17 8 -52 17
-80 18 -75 4 -75 4 -75 19 0 8 -20 19 -47 26 -27 7 -55 21 -64 31 -16 17 -19
17 -47 4 -19 -10 -39 -33 -54 -65 -19 -40 -29 -50 -58 -58 -24 -6 -45 -4 -68
5 -36 15 -88 65 -97 94 -8 24 -38 24 -111 3 -40 -11 -54 -20 -54 -33 0 -10 -7
-24 -15 -31 -8 -7 -15 -23 -15 -36 0 -17 -6 -24 -19 -24 -11 0 -22 -4 -25 -9
-11 -16 -78 -20 -112 -6 -45 19 -43 32 9 46 75 20 105 37 109 61 2 16 13 26
36 33 17 5 32 15 32 23 0 8 -6 12 -15 9 -8 -4 -17 -2 -20 3 -9 14 -42 12 -48
-2 -4 -8 -6 -7 -6 3 -1 9 13 31 29 49 24 26 28 35 18 47 -17 21 -20 73 -4 89
17 16 46 19 46 4 0 -13 26 -13 67 2 57 21 42 32 -38 28 -33 -1 -38 2 -48 30
-9 29 -14 32 -41 28 -18 -3 -35 1 -41 9 -6 7 -20 13 -31 13 -11 0 -33 11 -50
25 -16 14 -36 25 -44 25 -8 0 -14 3 -15 8 0 4 -3 29 -5 56 l-6 49 31 -6 c23
-5 36 -2 49 11 9 9 33 18 51 19 19 1 38 8 42 15 5 8 27 12 59 11 54 -2 61 4
31 31 -15 14 -18 23 -11 42 17 43 -10 69 -80 77 -19 2 -56 14 -82 26 -26 11
-51 21 -55 21 -8 0 -35 51 -30 57 2 2 18 -2 36 -8 24 -8 35 -8 46 1 8 6 19 9
24 5 13 -7 61 38 61 57 0 7 -19 32 -41 56 l-40 42 -511 0 -511 0 21 -23 c12
-13 22 -29 22 -35 0 -7 5 -12 10 -12 6 0 10 -5 10 -11 0 -5 -5 -7 -10 -4 -7 4
-9 -2 -4 -19 5 -20 2 -26 -9 -26 -31 0 -69 20 -94 50 -13 16 -33 30 -44 30
-10 0 -19 4 -19 9 0 16 25 30 65 34 22 2 -1950 4 -4382 5 -2943 1 -4423 -1
-4423 -8z m9380 -210 c47 -17 99 -30 115 -28 19 1 39 -5 53 -17 12 -11 31 -28
43 -38 17 -15 18 -21 7 -34 -10 -13 -9 -18 8 -32 15 -12 23 -33 26 -70 l5 -52
-26 6 c-14 4 -69 11 -121 15 -100 8 -110 11 -176 42 -33 14 -41 23 -37 38 3
11 10 18 16 17 6 -1 13 8 15 20 4 29 -44 55 -87 47 -47 -10 -81 2 -81 29 0 30
18 47 51 47 15 0 29 7 33 16 3 8 10 12 16 9 5 -3 18 -1 27 4 24 14 17 15 113
-19z m-3417 -2463 c10 -4 15 -11 12 -17 -3 -5 -2 -10 4 -10 5 0 12 -8 14 -17
3 -11 5 -5 6 12 l2 30 20 -27 c11 -16 28 -28 36 -28 13 0 13 -3 -1 -25 -9 -13
-20 -42 -24 -62 -5 -25 -15 -41 -30 -48 -12 -5 -22 -14 -22 -20 0 -5 -6 1 -13
15 -25 46 -42 74 -55 89 -14 15 -8 59 10 76 8 7 9 6 4 -2 -4 -7 3 -17 16 -23
19 -9 21 -9 7 2 -9 7 -14 19 -12 26 3 6 -3 12 -12 12 -9 0 -13 5 -10 10 3 6 0
10 -7 11 -7 0 -4 4 7 8 11 5 22 5 25 1 3 -3 13 -9 23 -13z m-109 -261 c23 5
43 -17 31 -35 -7 -12 40 -30 62 -25 14 4 19 0 19 -15 0 -25 3 -25 -39 -1 -30
18 -35 18 -40 5 -4 -8 3 -23 15 -35 24 -22 34 -25 43 -11 3 6 17 6 36 -1 23
-8 28 -13 17 -19 -8 -4 -26 -6 -40 -5 -21 2 -26 -1 -25 -16 1 -16 7 -18 37
-14 19 3 49 5 65 6 22 0 26 3 15 9 -8 6 -18 7 -22 5 -4 -3 -8 -1 -8 4 0 6 7
12 15 16 8 3 15 12 15 21 0 26 19 17 68 -34 34 -35 46 -55 44 -73 -2 -14 6
-34 20 -49 13 -13 23 -30 24 -37 2 -28 4 -33 13 -27 21 12 21 -17 1 -43 l-22
-27 39 -5 c21 -3 45 -10 53 -15 15 -10 20 -11 41 -14 6 0 8 -8 5 -17 -3 -8 -2
-12 4 -9 6 3 10 1 10 -4 0 -6 9 -20 21 -32 33 -33 16 -31 -27 3 -31 26 -35 27
-19 8 11 -14 26 -29 33 -33 7 -5 9 -13 6 -19 -4 -6 -3 -8 2 -5 6 3 15 -3 22
-14 10 -15 10 -19 -1 -19 -7 0 -18 5 -24 11 -7 7 -12 6 -16 -5 -4 -9 -1 -13 6
-10 7 2 13 -3 13 -13 1 -10 4 -25 8 -35 10 -22 -20 -28 -60 -11 -17 7 -34 10
-37 7 -3 -3 -24 6 -46 20 -26 17 -41 22 -41 14 -1 -9 -4 -8 -13 2 -7 9 -23 17
-36 17 -14 1 -28 9 -33 17 -5 8 -18 13 -29 11 -17 -3 -19 -1 -9 10 7 8 7 15 1
19 -6 4 -8 13 -4 21 8 22 -6 18 -29 -7 l-20 -23 17 30 c10 17 25 36 34 44 12
10 13 15 3 18 -6 3 -10 9 -6 14 3 5 0 9 -5 9 -6 0 -10 3 -10 8 4 24 -3 41 -20
47 -18 5 -34 33 -36 59 0 18 -20 16 -32 -4 -11 -16 -10 -18 1 -14 21 8 28 -12
9 -27 -12 -10 -14 -10 -9 -1 4 6 2 12 -3 12 -14 0 -14 -6 -1 -30 8 -16 6 -22
-10 -32 -11 -7 -20 -20 -20 -30 0 -9 -11 -25 -25 -36 -25 -20 -34 -52 -14 -52
6 0 9 6 6 14 -9 22 18 40 32 22 7 -8 20 -12 29 -9 15 4 15 3 2 -6 -8 -6 -24
-8 -35 -5 -16 4 -14 0 9 -19 16 -14 26 -29 23 -35 -4 -5 2 -17 13 -27 11 -10
20 -23 20 -29 0 -6 -5 -4 -10 4 -9 13 -10 13 -10 0 0 -13 -2 -13 -9 0 -6 8 -7
18 -5 22 3 4 0 8 -6 8 -7 0 -10 7 -6 15 7 19 -29 38 -60 32 -20 -4 -22 -1 -17
23 3 15 0 31 -6 34 -6 4 -11 3 -11 -3 0 -6 -6 -8 -14 -5 -9 3 -18 -5 -24 -23
-6 -17 -11 -21 -11 -11 -1 12 -6 15 -18 11 -10 -4 -14 -2 -10 4 4 5 -11 19
-33 29 -22 10 -40 22 -40 27 0 4 -7 7 -16 7 -11 0 -14 6 -9 23 5 17 4 19 -4 7
-8 -12 -12 -9 -17 17 -4 22 -15 35 -35 43 -16 7 -29 19 -29 26 0 21 20 17 21
-3 0 -12 2 -13 6 -5 3 7 -3 22 -12 32 -14 16 -17 31 -12 76 3 33 2 53 -3 48
-5 -5 -11 -27 -13 -49 -4 -34 -4 -32 -4 11 0 46 3 52 28 63 16 7 31 21 34 32
5 13 12 18 22 14 14 -5 14 -3 2 11 -13 16 -12 16 8 5 20 -10 22 -9 16 5 -4 11
-2 15 4 11 6 -4 14 0 17 9 3 8 11 14 18 13 28 -3 49 1 44 10 -8 12 27 8 36 -4
5 -6 8 -5 8 3 0 6 5 12 10 12 7 0 7 -7 0 -20 -8 -16 -8 -20 2 -18 7 2 12 -4
10 -12 -2 -10 0 -12 6 -5 6 6 13 24 17 41 5 26 3 32 -11 30 -9 0 -18 5 -20 12
-1 7 0 8 3 2 2 -5 15 -7 27 -4z m-1719 -406 c-3 -6 0 -13 9 -16 8 -3 13 -11
10 -18 -4 -9 11 -11 57 -8 56 4 61 3 56 -14 -3 -11 -8 -36 -11 -57 -5 -29 -3
-36 6 -31 10 6 9 3 0 -9 -18 -21 -26 -73 -13 -81 6 -4 6 -17 -1 -36 -5 -17
-14 -28 -19 -25 -4 3 -6 12 -3 20 3 7 -4 18 -15 25 -12 6 -21 8 -21 5 0 -4
-13 3 -29 14 -15 11 -31 18 -34 15 -7 -8 -78 17 -97 33 -8 8 -10 13 -3 13 6 0
14 -5 16 -10 3 -6 4 -5 3 2 -2 7 -12 13 -23 13 -12 0 -25 3 -29 8 -4 4 8 7 27
7 28 1 31 2 16 11 -9 5 -21 7 -27 4 -5 -3 -21 5 -35 17 -15 13 -31 23 -37 23
-6 0 -13 5 -15 11 -2 7 8 9 27 6 28 -4 35 3 28 25 -2 4 -11 6 -20 5 -30 -5
-20 8 17 24 19 7 51 14 72 14 21 0 45 5 53 10 20 13 43 13 35 0z m1036 -144
c7 4 9 3 5 -4 -3 -6 3 -13 14 -17 11 -3 20 -11 20 -16 0 -5 6 -9 14 -9 13 0
15 -16 7 -59 -1 -2 -7 1 -13 7 -13 10 -35 9 -97 -4 -29 -6 -33 -5 -28 9 5 14
2 15 -19 7 -14 -6 -36 -10 -49 -10 -13 0 -26 -6 -28 -12 -4 -9 -6 -8 -6 3 -1
9 10 22 24 29 14 7 25 19 25 26 0 6 7 14 15 18 20 7 19 24 -2 29 -11 3 -7 5
10 6 15 0 30 8 33 16 5 13 11 12 35 -6 16 -11 34 -17 40 -13z m-3292 -644 c-4
-22 3 -30 21 -25 14 4 20 0 20 -11 0 -9 4 -16 9 -16 5 0 8 -8 6 -17 -2 -10 -4
-20 -4 -22 -1 -3 -6 0 -13 7 -7 7 -21 12 -32 12 -17 0 -18 2 -6 10 13 8 13 10
-2 10 -9 0 -18 -6 -21 -12 -3 -10 -8 -10 -23 2 -18 14 -18 13 1 -8 16 -20 17
-25 5 -32 -13 -8 -12 -11 3 -22 14 -10 17 -21 12 -41 -9 -34 -29 -36 -22 -1 5
29 -19 46 -35 23 -7 -11 -11 -11 -15 -1 -2 6 -8 10 -12 8 -4 -3 -7 17 -7 44 1
26 -2 46 -6 44 -11 -7 -48 19 -48 34 0 7 4 11 9 7 5 -3 13 0 16 5 4 7 19 8 37
5 19 -5 28 -3 25 2 -4 6 4 8 18 5 15 -2 25 0 25 7 0 9 5 9 20 1 11 -6 19 -14
19 -18z m137 -74 c-10 17 9 15 24 -3 10 -12 9 -15 -4 -15 -25 0 -30 -25 -10
-55 16 -24 18 -25 35 -9 11 10 22 14 26 10 4 -4 1 -12 -7 -17 -12 -8 -9 -9 10
-5 14 3 32 1 40 -4 12 -8 10 -10 -10 -10 -21 0 -18 -4 20 -24 25 -13 64 -40
85 -61 29 -27 33 -33 15 -24 -22 11 -23 10 -13 -3 7 -8 10 -18 7 -21 -4 -3 0
-13 9 -21 8 -8 17 -12 21 -9 3 4 6 1 6 -5 0 -7 5 -11 12 -10 6 2 14 -5 16 -14
2 -14 -1 -16 -15 -12 -13 4 -15 3 -4 -4 8 -6 11 -18 6 -31 -4 -12 -2 -21 4
-21 6 0 11 4 11 9 0 5 9 7 19 4 15 -4 18 -12 15 -38 -3 -28 -1 -33 21 -37 17
-4 25 -1 25 8 0 8 4 14 8 14 5 0 9 -7 9 -15 0 -19 -56 -39 -73 -25 -8 8 -14 8
-19 0 -4 -6 -14 -9 -22 -6 -8 3 -11 1 -8 -5 9 -13 -13 -39 -34 -39 -9 0 -27
-15 -40 -33 -13 -18 -35 -41 -48 -50 -41 -31 -27 4 22 55 25 26 45 50 45 53 0
3 -9 5 -20 5 -27 0 -100 37 -100 51 0 6 -7 17 -15 26 -8 8 -13 19 -10 24 4 5
2 9 -2 9 -9 0 -40 47 -43 65 -1 6 -9 19 -18 29 -16 18 -16 19 1 13 12 -4 16
-3 11 4 -4 7 1 9 17 5 14 -3 10 1 -9 9 -18 9 -38 12 -44 9 -7 -5 -8 -2 -3 6 6
10 4 12 -8 7 -9 -3 -19 -1 -23 5 -5 7 -2 8 7 4 8 -4 2 2 -14 14 -29 23 -28 40
4 40 24 0 25 16 2 29 -13 6 -18 20 -17 48 1 34 4 38 27 38 18 -1 23 3 17 10
-15 18 10 37 29 22 12 -9 13 -9 7 1z m10937 -657 c20 -5 37 -6 37 -2 0 12 34
9 42 -3 5 -8 11 -7 20 2 6 6 19 12 27 12 13 0 13 -2 0 -16 -10 -9 -41 -17 -80
-21 -41 -3 -75 -12 -94 -25 -16 -11 -21 -17 -10 -13 28 10 126 15 121 6 -3 -4
-19 -6 -36 -3 -19 3 -30 0 -30 -7 0 -7 -5 -9 -11 -5 -6 3 -14 2 -18 -3 -3 -6
-46 -13 -96 -16 -49 -3 -111 -11 -137 -16 -26 -6 -54 -8 -63 -5 -9 4 -24 -1
-35 -11 -15 -13 -23 -15 -33 -7 -8 7 -18 7 -27 2 -8 -5 -23 -7 -33 -4 -10 3
-19 -1 -23 -10 -7 -18 -44 -22 -44 -5 0 7 -9 9 -24 5 -13 -3 -26 -2 -28 3 -2
6 -30 7 -73 1 -77 -10 -131 -16 -215 -25 -30 -4 -59 -10 -64 -15 -7 -7 29 -6
102 4 12 2 22 -1 22 -7 0 -6 4 -6 13 0 6 6 19 11 27 11 8 1 30 4 49 7 29 4 32
3 21 -10 -8 -10 -24 -13 -46 -11 -19 3 -36 0 -39 -5 -3 -4 -32 -8 -63 -8 -31
0 -69 -3 -84 -6 -22 -4 -25 -2 -21 13 4 16 -1 19 -26 17 -59 -3 -27 19 44 30
6 1 45 3 88 3 43 1 76 5 74 10 -3 4 16 7 41 8 59 1 145 15 152 25 3 4 50 10
104 14 55 3 106 10 115 16 12 8 2 9 -34 5 -49 -4 -49 -4 -20 9 39 18 50 18 70
-1 11 -12 19 -13 29 -5 7 6 30 13 52 15 58 6 104 17 110 27 3 5 13 9 22 8 14
0 13 -2 -3 -9 -16 -7 -17 -9 -3 -9 9 -1 21 5 25 13 4 8 19 16 33 19 14 2 27 5
30 5 3 1 22 -2 43 -7z m-10653 -1186 c0 -8 6 -12 14 -9 10 4 12 -2 9 -23 -3
-15 -7 -35 -10 -43 -4 -8 -5 -19 -4 -24 1 -4 -5 -19 -14 -32 -11 -18 -12 -23
-3 -22 7 2 16 10 20 18 5 12 7 12 7 -2 1 -10 -12 -24 -29 -33 -16 -9 -30 -17
-30 -19 0 -1 20 -1 44 1 38 4 45 1 61 -23 14 -22 15 -31 6 -46 -8 -13 -8 -18
0 -18 7 0 4 -9 -7 -22 -10 -12 -14 -18 -7 -15 6 4 14 3 17 -2 7 -10 75 5 90
20 6 5 24 9 41 9 16 0 45 4 62 9 20 6 35 6 38 0 4 -5 17 -9 31 -9 13 0 24 -4
24 -10 0 -5 8 -10 18 -10 14 0 15 2 2 10 -9 6 -10 10 -3 10 6 0 15 -4 18 -10
4 -6 18 -5 38 3 37 16 57 12 57 -11 0 -12 3 -13 12 -4 7 7 30 12 52 12 23 0
36 -4 30 -8 -6 -4 -16 -20 -23 -37 -11 -30 -11 -30 -7 -2 4 30 4 29 -18 21 -9
-3 -16 -12 -16 -20 0 -14 46 -94 54 -94 6 0 1 23 -8 38 -6 10 -3 13 10 10 12
-2 18 -11 16 -22 -2 -10 1 -15 7 -12 5 4 14 -2 20 -11 5 -10 13 -15 17 -11 4
5 12 4 19 -2 7 -6 21 -4 38 5 15 8 27 10 27 4 0 -5 21 -9 46 -9 43 0 45 1 33
18 -13 15 -12 16 3 4 14 -11 36 -17 80 -21 4 -1 20 -15 37 -33 l30 -32 53 13
c67 15 183 32 225 31 17 0 35 5 39 11 4 8 3 9 -4 5 -17 -10 -15 9 3 24 8 7 22
9 31 6 13 -5 14 -3 6 6 -8 10 -4 16 14 25 22 10 24 10 14 -3 -7 -8 -8 -14 -2
-14 13 0 33 25 26 32 -3 4 7 14 21 25 15 10 43 32 63 48 71 59 68 58 68 15 0
-22 -3 -40 -6 -40 -4 0 -6 -17 -6 -37 0 -57 -14 -133 -25 -133 -6 0 -7 -5 -3
-11 3 -6 0 -15 -7 -20 -11 -7 -11 -9 -1 -9 7 0 10 -5 6 -11 -6 -11 -8 -22 -13
-67 0 -7 -5 -11 -10 -7 -5 3 -12 1 -16 -5 -3 -5 0 -10 7 -10 9 0 14 -13 15
-36 1 -46 14 -59 42 -45 16 9 21 9 21 0 0 -9 16 -10 58 -4 31 4 68 9 82 10 24
3 34 5 92 27 22 8 30 6 48 -12 12 -12 28 -19 37 -16 8 3 26 9 39 12 13 3 24
11 24 16 0 6 -7 8 -15 4 -8 -3 -15 0 -15 5 0 6 9 9 20 6 10 -3 20 -1 22 4 3 9
81 -11 95 -24 4 -5 0 -5 -9 -2 -10 4 -28 -4 -49 -23 -31 -28 -32 -29 -8 -28
17 1 24 -4 23 -16 -1 -10 4 -14 13 -11 7 3 12 11 10 17 -2 6 5 16 17 23 21 12
21 12 -1 10 -13 -1 -23 -5 -23 -9 0 -4 -5 -8 -10 -8 -7 0 -7 7 0 20 6 11 15
18 20 15 5 -3 20 1 34 10 21 14 25 14 39 0 20 -20 27 -19 27 4 0 21 39 32 130
37 49 2 53 1 35 -12 -16 -12 -17 -14 -2 -14 16 0 21 9 15 27 -2 4 11 11 27 14
l30 7 -27 1 c-38 1 -35 14 10 36 l37 19 -30 6 c-24 6 -27 8 -12 14 23 11 22
26 -4 26 -12 0 -18 -4 -13 -11 3 -6 0 -15 -7 -20 -8 -5 -9 -9 -3 -9 8 0 6 -12
-5 -35 -16 -33 -36 -50 -25 -20 8 20 -5 19 -29 -2 -11 -10 -17 -12 -13 -6 5 9
2 11 -8 7 -9 -3 -14 -9 -11 -14 2 -4 -9 -7 -25 -8 -17 0 -30 4 -30 9 0 6 5 7
10 4 9 -6 94 55 112 80 9 11 0 47 -14 56 -11 7 20 34 49 43 12 4 20 13 17 20
-7 18 19 37 60 42 27 3 36 1 36 -11 0 -10 -6 -12 -17 -8 -17 6 -17 6 0 -11 13
-13 15 -22 7 -31 -12 -14 11 -40 25 -27 4 4 3 -3 -3 -14 -9 -17 -8 -25 3 -34
8 -7 13 -15 11 -19 -2 -3 2 -12 10 -18 7 -7 15 -9 18 -4 4 5 15 7 26 4 11 -3
20 0 20 6 0 6 9 11 20 11 12 0 36 16 55 35 19 19 35 30 35 24 0 -6 5 -7 10 -4
6 4 7 11 4 17 -5 7 -2 8 5 4 9 -6 9 -12 -2 -24 -8 -10 -13 -25 -12 -35 2 -10
-3 -21 -11 -24 -8 -3 -14 -9 -14 -14 0 -5 11 -4 25 1 29 11 33 -1 9 -24 -8 -9
-13 -20 -10 -25 3 -5 -2 -12 -12 -16 -13 -5 -8 -10 23 -21 22 -7 41 -14 43
-14 1 0 2 10 2 21 0 17 -3 19 -13 10 -16 -13 -27 -5 -27 20 0 15 7 17 38 13
36 -4 36 -4 9 7 -21 8 -26 16 -22 30 4 11 2 19 -5 19 -6 0 -8 5 -5 10 4 6 10
8 14 6 4 -3 7 12 7 32 -1 24 4 37 12 37 15 0 33 26 26 37 -8 13 -34 9 -34 -6
0 -7 -7 -19 -15 -26 -18 -15 -20 1 -3 18 9 9 9 12 -3 12 -7 0 1 10 19 21 17
12 32 25 32 30 0 5 5 9 11 9 8 0 8 -4 0 -14 -15 -18 8 -39 29 -26 12 8 11 10
-5 10 -18 1 -19 1 -2 11 9 5 17 15 17 20 0 6 -4 8 -9 4 -5 -3 -12 -1 -16 5 -3
5 -1 10 5 10 6 0 8 5 4 12 -4 6 -3 8 4 4 10 -6 27 10 27 28 0 13 33 31 42 23
4 -5 1 -12 -6 -16 -9 -6 -10 -11 -3 -15 6 -4 14 0 19 7 12 20 51 28 57 11 3
-8 2 -13 -2 -12 -4 1 -18 -4 -31 -11 -12 -7 -32 -11 -42 -8 -10 3 -19 1 -19
-4 0 -5 8 -9 18 -9 26 0 34 -11 21 -27 -15 -17 -1 -16 31 2 14 8 35 14 48 15
12 0 22 5 22 11 0 5 4 8 9 4 5 -3 12 -1 16 5 3 5 13 10 21 10 9 0 12 -5 8 -12
-5 -8 2 -9 23 -5 28 6 31 4 35 -24 3 -18 1 -28 -6 -26 -20 8 -64 -22 -70 -47
-4 -18 -11 -24 -23 -19 -11 4 -14 3 -9 -5 4 -7 14 -12 22 -12 17 0 18 -12 2
-29 -10 -11 -8 -10 10 0 12 8 22 18 22 22 0 5 12 -1 26 -12 15 -11 30 -19 34
-16 4 3 10 -7 13 -21 3 -18 1 -24 -9 -20 -7 3 -16 1 -20 -5 -7 -12 -66 -1 -76
15 -5 7 -8 4 -8 -7 0 -10 11 -22 25 -27 14 -5 25 -13 25 -18 0 -14 -12 -22
-24 -15 -18 11 -45 10 -43 -1 1 -6 -10 -12 -25 -14 -19 -2 -28 1 -28 11 0 8
-6 17 -14 20 -14 6 -15 -15 -2 -46 7 -14 11 -15 22 -6 9 8 14 8 14 1 0 -6 -4
-13 -10 -17 -5 -3 -7 -12 -3 -21 5 -13 8 -13 29 1 13 8 24 11 24 5 0 -5 -4
-10 -10 -10 -5 0 -10 -4 -10 -10 0 -5 13 -10 30 -10 23 0 28 -3 23 -17 -4 -10
-2 -14 4 -10 6 4 13 0 17 -8 3 -8 11 -15 17 -15 8 0 7 6 -4 18 -13 14 -13 20
-3 35 17 22 25 22 19 -2 -4 -16 0 -18 29 -17 19 2 32 7 30 14 -1 7 10 12 25
12 25 0 26 -1 8 -13 -17 -13 -17 -14 6 -21 13 -5 30 -10 38 -11 7 -2 19 -9 24
-14 8 -8 3 -10 -19 -5 -27 5 -32 3 -37 -17 -4 -13 -3 -26 2 -29 12 -7 10 -40
-2 -33 -6 4 -8 0 -4 -10 3 -10 2 -17 -3 -17 -6 0 -10 5 -10 10 0 6 -4 10 -10
10 -5 0 -6 -7 -3 -17 4 -10 2 -14 -4 -10 -5 3 -10 0 -10 -8 0 -10 4 -12 12 -5
29 24 53 -14 31 -48 -5 -9 -12 -9 -29 0 -21 11 -21 11 -2 19 13 5 15 8 5 8 -8
0 -24 -6 -34 -14 -19 -15 -19 -15 1 -15 12 0 23 -6 26 -12 3 -10 10 -10 30 1
15 8 27 19 27 24 0 12 42 46 58 47 6 0 12 4 12 9 0 4 -11 6 -25 3 -20 -3 -25
0 -25 15 0 10 6 25 13 32 10 10 8 15 -8 28 -20 15 -20 15 0 11 24 -4 33 -37
13 -49 -9 -6 -8 -9 8 -9 20 0 26 22 12 46 -4 6 -9 21 -12 35 -2 13 -7 31 -11
40 -4 12 0 15 17 15 15 -1 22 4 20 14 -3 12 -1 13 9 3 7 -7 18 -13 23 -13 6 0
4 5 -4 10 -10 6 -11 10 -2 10 6 0 12 7 12 16 0 8 -4 12 -10 9 -5 -3 -10 0 -11
7 0 10 -2 10 -6 1 -3 -9 -11 -9 -29 3 -31 21 -30 25 4 47 l27 17 -28 -6 c-23
-5 -26 -4 -20 12 4 12 3 15 -6 10 -6 -4 -18 -2 -26 4 -11 9 -18 9 -29 -3 -8
-8 -12 -18 -8 -21 8 -9 -19 -26 -30 -20 -14 9 -9 26 6 21 10 -4 13 -1 9 10 -3
8 0 19 8 23 10 7 7 14 -14 30 -15 12 -27 26 -27 32 0 6 8 2 18 -9 18 -21 47
-22 65 -4 7 7 5 17 -8 31 -10 11 -14 20 -10 20 5 0 4 5 -3 12 -18 18 -15 27 8
21 10 -3 18 -10 17 -16 -1 -5 13 -14 31 -19 39 -10 40 -20 7 -46 -14 -11 -25
-22 -25 -24 0 -2 16 -10 35 -18 19 -8 35 -20 35 -27 0 -7 7 -13 15 -13 19 0
19 14 -1 34 -10 11 -11 16 -3 16 8 0 7 6 -4 18 -15 16 -15 20 -2 39 17 24 6
37 -20 26 -13 -4 -16 -2 -13 8 10 28 94 11 86 -18 -3 -14 44 -83 64 -94 19
-10 19 -12 4 -27 -16 -16 -18 -16 -32 2 -12 17 -14 18 -14 3 0 -9 -8 -17 -17
-17 -9 0 -13 -3 -10 -7 4 -3 1 -13 -5 -22 -9 -12 -7 -11 8 2 12 9 28 15 37 11
8 -3 25 -1 36 5 13 7 22 8 26 1 10 -16 48 -12 42 4 -7 17 25 27 44 15 12 -7
12 -9 0 -9 -8 0 -11 -6 -7 -16 5 -14 4 -15 -8 -5 -26 22 -24 -22 2 -46 l23
-23 -33 -1 -33 -1 29 -9 c20 -5 34 -4 43 3 11 9 12 6 4 -14 -12 -31 3 -62 19
-38 5 8 10 11 10 6 0 -10 -43 -52 -62 -59 -7 -3 8 -6 34 -6 34 -1 47 -5 50
-17 2 -13 8 -12 31 8 28 25 35 53 15 61 -7 2 -10 8 -6 12 5 5 16 0 27 -9 18
-16 19 -16 17 0 -1 21 79 46 106 32 14 -7 16 -4 12 19 -3 15 -10 30 -16 34 -7
4 -6 9 2 14 6 4 9 13 6 21 -4 11 -2 12 14 4 27 -15 43 -12 36 6 -3 8 -2 12 4
9 6 -3 10 0 10 8 0 10 7 14 23 10 20 -4 21 -3 5 10 -27 22 -23 47 8 47 22 0
24 -2 14 -15 -13 -16 -4 -39 12 -29 7 5 9 1 5 -9 -3 -10 -2 -17 4 -17 6 0 5
-8 -2 -21 -9 -17 -8 -23 2 -30 8 -5 17 -9 21 -9 11 0 21 21 13 28 -3 3 -10 0
-15 -8 -8 -12 -10 -10 -10 7 0 23 20 43 21 21 0 -7 5 -3 11 10 9 17 20 22 50
22 21 0 41 0 45 1 18 2 12 -20 -7 -26 -11 -3 -18 -10 -15 -15 3 -4 -1 -13 -9
-19 -8 -7 -12 -21 -9 -31 3 -11 0 -20 -6 -20 -6 0 -11 -5 -11 -11 0 -5 4 -7
10 -4 6 3 7 -1 4 -10 -4 -9 2 -25 13 -38 23 -25 38 -62 23 -52 -6 4 -1 -10 10
-30 25 -45 25 -53 0 -30 -18 16 -20 16 -26 1 -4 -10 -18 -16 -37 -16 -17 0
-28 -3 -24 -6 3 -4 -1 -13 -9 -21 -8 -8 -12 -19 -9 -24 4 -5 2 -9 -4 -9 -5 0
-12 6 -14 13 -4 7 -6 6 -6 -4 -1 -21 -43 -30 -60 -12 -9 10 -10 17 -2 27 9 10
7 15 -5 20 -9 4 -14 9 -11 13 4 3 3 11 -3 18 -6 7 -4 21 5 38 12 24 12 27 -1
27 -9 0 -13 5 -9 13 4 6 -1 3 -9 -7 -9 -11 -19 -17 -22 -13 -9 9 -44 -11 -44
-26 0 -7 -20 -32 -45 -57 -24 -25 -44 -48 -45 -52 0 -3 -23 -29 -52 -57 -29
-28 -46 -51 -38 -51 9 0 6 -7 -8 -20 -12 -12 -22 -24 -22 -27 0 -4 5 -2 12 5
7 7 16 12 20 12 17 0 7 -21 -22 -46 -16 -15 -32 -35 -36 -46 -3 -10 -10 -16
-15 -12 -6 3 -16 0 -24 -6 -12 -10 -15 -10 -15 0 0 8 -9 10 -26 6 -18 -5 -24
-3 -18 5 4 7 3 9 -4 6 -5 -4 -8 -16 -5 -27 4 -14 0 -20 -10 -20 -9 0 -19 -5
-23 -12 -5 -7 -3 -8 6 -3 9 5 11 4 6 -3 -4 -7 -13 -12 -19 -12 -7 0 -21 -13
-32 -28 -15 -21 -15 -24 -2 -13 9 7 17 9 17 3 0 -12 -25 -34 -32 -27 -2 3 -19
0 -38 -5 -26 -8 -31 -7 -21 3 6 6 19 12 28 12 29 0 24 20 -5 22 -23 2 -33 -5
-52 -37 -17 -28 -27 -36 -36 -29 -8 7 -14 6 -19 -1 -3 -6 -11 -8 -16 -4 -5 3
-7 10 -4 15 4 5 -1 9 -10 9 -9 0 -14 -4 -10 -9 3 -5 1 -12 -5 -16 -23 -14 -9
45 15 63 18 14 22 23 14 28 -7 4 -18 -1 -26 -11 -15 -21 -14 -22 -16 23 -1 17
-5 32 -9 32 -5 0 -13 0 -19 0 -8 0 -7 -6 2 -17 8 -9 9 -14 3 -10 -7 4 -11 -2
-11 -18 0 -14 3 -22 8 -20 4 3 11 0 15 -7 4 -7 4 -10 -1 -6 -9 9 -34 -20 -35
-39 0 -7 7 -10 18 -7 14 5 15 4 2 -5 -8 -6 -24 -10 -35 -10 -11 0 -14 3 -7 6
6 2 12 12 12 20 0 14 -3 14 -20 -2 -11 -10 -20 -13 -20 -7 0 7 5 12 10 12 14
0 12 27 -2 33 -10 4 -10 8 1 15 8 6 9 12 3 16 -16 9 -23 -10 -16 -39 4 -16 2
-25 -6 -25 -6 0 -9 -4 -5 -9 8 -14 -44 -51 -62 -44 -14 5 -13 8 3 21 13 10 15
16 6 19 -6 3 -10 8 -8 11 2 4 -2 13 -10 19 -8 8 -15 9 -19 3 -3 -6 -2 -10 2
-10 5 0 9 -10 10 -22 0 -13 -1 -17 -4 -10 -3 6 -11 12 -18 12 -7 0 -15 5 -17
11 -3 9 -9 9 -25 0 -35 -18 -42 -13 -40 27 2 36 3 37 40 34 25 -3 37 0 35 8
-2 7 3 15 10 17 6 3 12 0 12 -6 0 -6 6 -11 13 -11 6 1 1 10 -12 20 -13 11 -19
20 -14 20 5 0 9 9 9 20 0 21 -11 27 -20 11 -3 -5 -14 -7 -24 -5 -16 5 -18 13
-13 91 1 6 7 13 15 15 12 3 12 6 -1 23 -13 16 -15 17 -10 3 4 -10 2 -18 -3
-18 -19 0 -18 18 2 36 12 11 18 14 15 7 -4 -6 -3 -14 3 -18 5 -3 10 -1 10 6 0
6 8 18 18 25 16 13 16 13 -3 14 -11 0 -26 9 -33 20 -7 12 -17 18 -21 15 -5 -2
-11 1 -14 9 -5 12 5 14 49 11 31 -1 54 1 54 7 0 6 -9 8 -20 5 -11 -3 -22 -1
-25 3 -3 4 -28 11 -55 15 -28 4 -50 11 -50 16 0 5 5 9 11 9 6 0 9 7 7 16 -2
12 -18 17 -62 19 -32 2 -62 8 -66 15 -4 6 -11 11 -16 10 -5 0 -11 7 -13 16 -2
12 2 15 13 11 10 -4 20 1 27 14 10 19 9 20 -11 9 -12 -6 -24 -9 -28 -6 -3 3 0
6 6 6 7 0 12 6 12 14 0 10 -7 12 -22 8 -17 -4 -20 -2 -15 11 3 9 1 17 -5 19
-7 3 -9 11 -5 20 4 11 13 15 28 11 15 -4 20 -3 15 5 -4 7 -14 12 -22 12 -8 0
-14 6 -14 13 0 8 -3 7 -9 -3 -6 -8 -8 -17 -5 -21 2 -4 -4 -10 -14 -14 -16 -6
-16 -7 1 -19 16 -13 16 -15 -11 -44 -15 -16 -26 -35 -24 -41 2 -6 -3 -11 -12
-11 -18 0 -21 -11 -6 -26 7 -7 3 -17 -11 -30 -13 -10 -19 -13 -15 -6 4 6 3 12
-3 12 -5 0 -17 3 -27 7 -12 4 -15 3 -10 -5 5 -8 -1 -12 -16 -12 -16 0 -19 3
-10 9 11 7 11 9 -2 14 -8 3 -18 2 -21 -3 -4 -6 -19 -8 -35 -5 -22 4 -35 -1
-57 -23 -38 -39 -85 -64 -82 -44 6 34 -27 45 -55 17 -8 -8 -17 -15 -21 -15 -3
0 -21 -14 -41 -32 -23 -21 -34 -39 -31 -50 6 -20 -9 -25 -16 -5 -2 6 -4 -1 -4
-18 0 -22 -11 -38 -38 -62 -36 -31 -36 -41 -1 -27 9 3 16 11 16 16 0 6 9 19
21 29 11 9 20 21 19 25 -1 5 3 10 8 12 5 1 9 -11 7 -28 -2 -23 -10 -35 -31
-46 -16 -9 -36 -22 -45 -30 -8 -8 -19 -11 -24 -7 -4 5 -5 0 -2 -9 3 -10 2 -20
-4 -23 -5 -4 -3 -13 6 -21 14 -14 20 -34 11 -34 -15 0 -35 14 -30 21 3 5 0 9
-5 9 -6 0 -11 -12 -11 -26 0 -17 4 -23 13 -18 8 5 8 2 -2 -9 -13 -17 -37 -24
-27 -9 3 5 -1 9 -9 9 -19 0 -29 -28 -13 -39 20 -12 3 -9 -24 5 -14 7 -23 18
-20 25 2 6 -1 12 -6 12 -6 0 -12 -10 -14 -22 -2 -13 -9 -22 -15 -21 -6 1 -9
-6 -6 -16 3 -10 -1 -22 -8 -26 -8 -6 -10 -4 -4 5 5 8 3 11 -6 8 -8 -3 -19 2
-26 11 -10 13 -15 14 -32 4 -17 -11 -19 -10 -15 2 5 11 2 13 -10 9 -9 -3 -14
-10 -11 -14 3 -5 0 -12 -6 -16 -8 -5 -9 -3 -4 6 6 10 4 12 -8 7 -19 -7 -57 40
-49 62 3 8 0 11 -7 7 -15 -10 -14 -36 2 -36 9 0 8 -3 -2 -9 -7 -5 -22 -6 -34
-3 -19 5 -19 6 -2 19 11 7 14 13 8 13 -6 0 -16 -6 -22 -14 -12 -14 -2 -28 29
-39 8 -3 -4 -4 -27 -4 -28 1 -39 5 -33 11 13 13 13 26 -1 26 -5 0 -7 -4 -4
-10 3 -5 4 -10 1 -10 -2 0 -12 -3 -22 -7 -13 -5 -15 -3 -10 8 4 8 -2 4 -13 -9
-21 -24 -52 -22 -32 2 7 8 4 11 -13 11 -12 -1 -27 -5 -34 -9 -7 -4 -10 -2 -7
6 7 20 -22 53 -37 41 -7 -5 -19 -8 -25 -7 -7 1 -17 2 -23 3 -5 0 -10 6 -10 11
0 6 28 10 64 10 115 0 80 48 -36 51 -26 0 -31 17 -8 24 11 4 19 12 18 18 -3
14 35 55 54 58 26 3 39 -1 33 -11 -3 -5 -3 -10 2 -10 4 0 9 -11 9 -25 2 -19
-1 -23 -10 -16 -9 8 -13 7 -13 -4 0 -20 18 -24 47 -8 14 7 21 13 15 13 -12 0
-35 47 -27 54 3 3 12 0 20 -7 13 -10 14 -9 7 2 -6 11 -4 13 8 8 8 -3 21 1 27
9 7 8 9 14 6 14 -4 0 -4 5 0 11 4 8 9 7 15 -2 7 -11 9 -10 9 5 0 12 -5 16 -14
13 -18 -7 -42 18 -26 28 5 3 10 1 10 -6 0 -7 3 -9 7 -6 3 4 16 -2 28 -13 21
-20 21 -20 38 0 9 11 12 20 6 20 -5 0 -7 5 -3 12 5 8 1 9 -12 5 -18 -7 -18 -7
0 8 11 8 23 15 28 15 4 0 5 6 2 13 -7 19 20 39 41 30 16 -6 16 -7 -5 -15 -13
-5 -20 -11 -16 -15 3 -3 16 -1 29 5 12 6 36 14 52 17 17 4 24 10 17 12 -6 3
-10 9 -6 14 8 14 -6 10 -22 -6 -18 -17 -34 -20 -34 -5 0 6 5 10 10 10 6 0 9 6
8 13 -2 6 3 11 10 9 8 -1 11 2 7 8 -3 6 -11 8 -16 5 -5 -4 -20 6 -33 20 -13
14 -24 20 -23 13 1 -33 -5 -44 -24 -45 -29 -2 -37 -12 -19 -23 9 -6 10 -10 3
-10 -6 0 -19 -8 -29 -17 -21 -21 -54 -24 -54 -6 0 8 4 12 9 9 5 -3 15 2 22 12
12 15 12 16 -2 5 -9 -7 -19 -10 -22 -6 -4 3 -9 -2 -13 -11 -3 -9 -12 -16 -19
-16 -18 0 -26 -25 -12 -39 6 -6 8 -11 3 -11 -4 0 -14 7 -23 15 -12 13 -13 18
-3 31 7 8 10 17 6 21 -3 3 -6 1 -6 -5 0 -7 -6 -12 -14 -12 -7 0 -20 -10 -28
-22 -10 -15 -20 -19 -32 -15 -16 6 -16 10 -5 25 12 15 12 16 -2 4 -9 -7 -23
-10 -32 -6 -8 3 -18 1 -22 -5 -9 -16 -38 -14 -30 2 4 6 -1 3 -9 -7 -9 -11 -16
-17 -16 -13 0 4 -9 3 -20 -3 -11 -6 -20 -20 -20 -31 0 -11 -5 -17 -10 -14 -6
4 -8 11 -5 16 3 5 -1 6 -9 3 -10 -4 -16 -1 -16 7 -1 10 -5 8 -15 -5 -18 -23
-33 -14 -30 19 2 14 0 23 -5 20 -15 -9 -40 7 -40 26 0 11 -7 19 -16 19 -20 0
-47 27 -39 40 3 5 1 10 -5 10 -6 0 -9 4 -5 9 3 5 1 12 -5 16 -6 4 -7 12 -1 22
15 27 1 53 -28 53 -18 0 -22 3 -12 9 17 11 -3 25 -24 17 -8 -3 -15 -1 -15 4 0
5 9 12 20 15 11 4 18 11 14 16 -4 6 -11 6 -20 -2 -11 -9 -14 -8 -14 4 0 8 -6
20 -14 26 -11 10 -17 8 -26 -6 -8 -13 -13 -14 -16 -5 -3 6 -10 9 -15 6 -6 -3
-18 -3 -27 1 -15 6 -15 8 3 15 17 7 15 8 -10 9 -32 1 -62 5 -112 16 -23 5 -30
11 -26 22 5 13 -1 15 -30 11 -25 -3 -37 0 -37 8 0 8 -20 15 -47 19 -27 3 -59
11 -72 16 -13 5 -26 8 -29 5 -7 -7 -66 24 -75 40 -6 11 -12 11 -28 1 -17 -10
-22 -9 -33 6 -7 9 -29 22 -47 28 -47 16 -64 30 -47 40 8 5 3 10 -14 14 -32 8
-43 31 -21 43 14 8 14 10 -1 15 -8 3 -22 0 -30 -8 -12 -13 -15 -12 -20 2 -4 9
-4 25 -1 37 5 15 4 17 -3 7 -5 -7 -14 -11 -20 -7 -6 3 -14 1 -18 -5 -5 -8 -2
-10 7 -5 8 4 5 0 -5 -8 -24 -19 -53 -12 -83 20 -12 13 -27 24 -33 24 -6 0 -9
4 -5 9 3 5 0 13 -6 17 -8 4 -9 3 -5 -4 11 -18 -39 -15 -54 4 -11 12 -11 15 1
12 13 -3 14 1 11 36 -2 18 -33 29 -46 16 -7 -7 -3 -10 12 -10 12 0 22 -5 22
-11 0 -6 -7 -9 -14 -6 -10 4 -13 1 -10 -7 15 -38 -92 -16 -149 31 -16 13 -38
23 -50 23 -12 0 -35 11 -51 25 -16 14 -33 25 -38 25 -4 0 -8 5 -8 12 0 9 3 9
11 1 12 -12 52 -5 43 8 -5 8 10 13 29 10 5 -1 6 3 3 7 -8 14 31 45 45 36 8 -5
10 -2 6 8 -4 11 0 15 11 14 9 -2 30 10 47 27 37 35 110 71 135 64 14 -3 17 -1
13 11 -4 10 -2 13 5 8 7 -4 12 -14 12 -21z m2668 -1028 c12 5 14 1 10 -19 -4
-19 -1 -25 9 -21 7 3 13 2 13 -1 0 -15 -34 -72 -48 -80 -12 -7 -12 -10 -1 -17
11 -7 11 -9 1 -9 -7 0 -10 -5 -6 -12 5 -8 0 -9 -15 -5 -25 6 -91 -20 -91 -37
0 -5 10 -20 22 -33 15 -16 17 -23 7 -23 -22 0 -36 13 -41 35 -3 17 -6 15 -18
-13 -9 -19 -20 -30 -28 -27 -7 2 -18 -6 -24 -20 -6 -13 -15 -22 -20 -19 -4 3
-11 -2 -14 -10 -3 -9 -10 -16 -15 -16 -5 0 -2 15 7 33 16 31 16 32 -2 16 -32
-27 -47 -33 -42 -18 3 8 -2 20 -10 28 -12 13 -10 16 14 29 l28 15 -24 10 c-15
5 -20 11 -12 14 6 3 10 9 7 13 -3 5 -12 7 -20 4 -10 -4 -12 -12 -4 -30 6 -17
6 -23 -1 -19 -6 3 -10 -1 -10 -9 0 -10 -9 -16 -25 -16 -17 0 -25 -6 -25 -17 0
-13 -2 -15 -8 -5 -6 9 -16 10 -33 4 -13 -5 -30 -7 -36 -5 -15 6 -17 -13 -3
-22 6 -4 8 -11 5 -16 -4 -5 -1 -9 4 -9 6 0 11 -7 11 -15 0 -8 -4 -15 -10 -15
-5 0 -10 5 -10 11 0 5 -4 7 -10 4 -14 -9 -13 8 2 23 13 13 4 16 -39 12 -16 -1
-23 4 -23 16 0 13 -3 14 -14 4 -8 -6 -34 -13 -58 -15 l-42 -3 24 18 c16 12 27
15 31 8 4 -6 12 -7 18 -4 6 4 8 12 5 18 -4 6 -3 9 2 6 5 -3 17 5 27 18 17 23
17 24 -3 24 -11 0 -20 -4 -20 -9 0 -13 -28 -8 -43 8 -10 10 -2 12 38 11 76 -3
74 -4 68 34 -3 19 -1 36 6 40 6 4 11 1 11 -6 0 -10 2 -11 8 0 5 7 16 10 25 6
9 -3 14 -10 11 -15 -3 -5 -9 -7 -14 -4 -5 3 -13 -3 -19 -13 -9 -16 -6 -18 20
-14 16 2 27 8 24 12 -3 5 -1 11 5 15 6 4 7 11 4 17 -5 7 -2 8 5 4 7 -5 10 -15
7 -23 -4 -9 -1 -13 6 -10 7 2 12 13 11 23 -1 10 0 14 3 7 3 -7 13 -10 22 -7
15 5 15 4 0 -9 -22 -17 -23 -27 -3 -27 8 0 15 4 15 8 0 5 10 8 23 6 12 -1 28
-3 35 -3 7 -1 11 -5 8 -9 -2 -4 -2 -13 2 -19 9 -13 82 31 82 50 0 9 -3 8 -9
-2 -5 -8 -11 -9 -15 -3 -3 6 3 14 15 17 13 4 18 12 15 22 -4 9 -1 13 6 10 7
-2 12 -10 10 -16 -1 -7 2 -10 8 -6 14 9 13 35 -2 35 -13 0 -8 8 5 9 5 0 14 6
20 14 9 11 18 13 36 6 23 -9 23 -10 5 -23 -10 -8 -23 -12 -28 -9 -5 4 -7 -4
-4 -15 4 -14 2 -20 -5 -15 -6 4 -8 0 -4 -10 5 -13 1 -17 -14 -17 -11 0 -18 -4
-14 -10 3 -5 11 -8 18 -6 7 1 9 1 5 -1 -11 -6 -10 -23 1 -23 11 0 51 39 75 73
10 15 25 27 33 27 8 0 11 5 8 11 -4 6 -14 8 -22 4 -13 -4 -14 -3 -3 10 7 9 22
13 34 10 12 -3 15 -2 9 1 -7 3 -13 14 -13 25 0 10 -5 19 -11 19 -5 0 -7 5 -3
11 4 7 10 7 16 1 6 -6 17 -8 26 -5z m-1136 -1140 c18 -14 8 -45 -11 -33 -6 4
-11 2 -11 -4 0 -7 -8 -9 -22 -4 -43 14 -118 11 -118 -4 0 -10 -7 -12 -21 -9
-15 4 -23 0 -26 -14 -6 -23 -22 -24 -49 -4 -26 20 -58 19 -104 -5 -22 -11 -40
-16 -40 -11 0 12 -66 -3 -86 -20 -13 -10 -17 -10 -24 1 -5 8 -12 11 -16 7 -4
-4 1 -13 10 -20 16 -12 17 -16 5 -35 -16 -25 -38 -22 -113 15 -57 29 -103 26
-148 -7 -33 -24 -42 -25 -93 0 -22 11 -46 19 -53 20 -7 0 -10 5 -7 10 3 6 30
10 58 10 37 0 48 -3 37 -10 -12 -8 -9 -10 13 -10 26 0 27 1 13 16 -20 19 -20
24 0 24 8 0 12 -4 9 -10 -4 -6 12 -10 39 -10 35 0 46 4 46 15 0 11 -7 14 -25
9 -20 -5 -25 -2 -25 14 0 27 46 35 100 16 29 -10 63 -13 107 -9 36 3 72 1 83
-5 15 -8 23 -6 38 10 12 13 25 18 35 14 10 -3 17 -1 17 5 0 6 17 11 39 11 22
0 43 5 46 10 3 6 21 10 40 10 19 0 37 5 40 10 9 15 196 12 217 -3z m268 -107
c-19 -4 -29 -8 -21 -9 7 0 11 -7 7 -16 -5 -13 -2 -14 15 -4 12 6 24 7 28 3 3
-5 35 -9 71 -10 145 -2 267 -13 305 -28 l40 -15 -51 0 c-28 -1 -54 -4 -57 -8
-4 -3 -60 -7 -124 -9 -87 -1 -123 2 -139 12 -11 8 -28 12 -37 9 -8 -4 -18 -2
-22 4 -3 6 -24 11 -46 11 -21 0 -39 4 -39 8 0 18 -45 5 -55 -16 -5 -11 -17
-23 -27 -25 -32 -9 -151 2 -159 14 -4 6 -18 9 -35 5 -16 -3 -61 -2 -101 2 -40
5 -79 4 -87 0 -8 -5 -17 -4 -21 1 -3 5 -22 7 -43 4 -33 -6 -35 -4 -24 9 13 17
1 27 -43 35 -69 12 -25 19 155 23 348 8 547 9 510 0z m2035 -28 c5 -3 39 -7
75 -8 52 -2 58 -1 30 6 -22 5 -2 6 55 3 50 -3 97 -9 105 -13 8 -4 44 -11 80
-15 36 -3 79 -10 95 -15 17 -5 50 -11 75 -14 91 -10 130 -19 141 -32 6 -8 28
-14 48 -14 49 0 82 -10 74 -23 -3 -6 -1 -7 6 -3 9 6 175 -47 190 -60 3 -3 -11
-4 -30 -3 -61 1 -124 -6 -130 -15 -4 -4 -66 -3 -140 3 -74 6 -235 13 -359 17
-220 6 -300 15 -300 34 0 6 -11 10 -25 10 -14 0 -25 4 -25 8 0 5 -19 15 -42
22 -24 8 -50 19 -58 26 -8 6 -31 15 -50 19 -19 4 -50 14 -69 21 -26 11 -32 17
-23 26 18 18 251 35 277 20z m-3995 -27 c36 -7 146 -16 280 -25 138 -9 316
-37 305 -48 -3 -3 -36 -15 -73 -27 -66 -20 -98 -19 -138 7 -12 8 -87 -8 -114
-24 -15 -10 -22 -10 -31 -1 -8 8 -18 9 -29 3 -14 -7 -38 -8 -80 -1 -3 1 2 6
10 11 11 7 3 10 -30 9 -34 0 -40 -2 -25 -9 26 -11 13 -12 -95 -10 -47 1 -89 6
-94 11 -6 5 15 6 52 3 65 -7 69 -5 52 27 -13 22 -50 26 -50 4 0 -12 -18 -15
-101 -15 -76 0 -100 3 -96 13 2 7 21 12 45 12 52 -1 54 10 5 26 -21 7 -56 21
-78 31 l-40 18 155 -6 c85 -4 162 -8 170 -9z m3365 -20 c44 -8 86 -14 93 -15
7 0 11 -3 9 -7 -3 -5 10 -8 29 -9 36 -1 58 -14 36 -21 -6 -3 -9 -9 -6 -15 5
-7 -3 -9 -22 -4 -19 4 -24 3 -14 -3 8 -4 43 -11 77 -14 34 -3 81 -12 105 -20
55 -19 133 -37 158 -37 24 0 25 -6 5 -26 -11 -12 -22 -13 -50 -5 -19 5 -37 6
-40 1 -5 -9 175 -44 183 -35 8 8 -5 17 -30 20 -37 4 -38 4 -38 16 0 6 9 8 21
4 11 -4 35 -8 53 -9 45 -4 60 -14 46 -31 -8 -10 -7 -14 7 -18 26 -6 -255 3
-297 10 -19 3 -82 7 -140 8 -220 5 -261 8 -266 16 -3 5 3 9 13 10 10 1 3 5
-15 9 -18 4 -42 6 -52 3 -10 -3 -21 0 -24 6 -5 8 13 11 56 11 52 1 60 3 43 12
-11 6 -22 14 -25 18 -8 11 -60 18 -60 9 0 -5 -8 -9 -17 -9 -15 0 -16 2 -3 10
12 8 11 10 -7 10 -15 0 -21 5 -17 14 4 11 25 15 77 15 40 1 97 3 127 6 38 3
50 2 40 -5 -11 -7 -6 -10 20 -9 19 0 29 3 22 6 -6 2 -10 9 -6 14 3 5 2 9 -3 8
-4 -1 -25 -1 -45 0 -29 1 -38 5 -39 19 0 10 -3 12 -6 5 -2 -7 -9 -13 -15 -13
-6 0 -8 7 -4 15 3 8 2 14 -2 13 -4 -1 -25 2 -47 7 -22 4 -46 7 -53 6 -6 -1
-20 3 -30 8 -26 16 57 14 153 -4z m1250 -263 c61 -5 143 -8 183 -7 41 0 75 -2
78 -6 4 -7 41 -15 119 -25 122 -15 116 -12 111 -54 -6 -48 -25 -80 -48 -80
-10 0 -18 -5 -18 -11 0 -8 -4 -8 -13 -1 -8 7 -18 7 -27 2 -8 -6 -27 -10 -41
-10 -24 0 -27 4 -25 33 1 22 -3 34 -12 34 -8 0 -12 -8 -8 -20 5 -22 -2 -47
-15 -47 -5 0 -9 8 -9 18 -1 16 -1 16 -10 0 -11 -17 -49 -14 -62 6 -5 8 -8 7
-8 -1 0 -19 -115 -13 -158 8 -20 11 -43 19 -52 19 -8 0 -22 5 -30 11 -11 8 -6
9 20 5 l35 -6 -35 16 c-19 9 -37 19 -40 24 -3 4 -40 15 -82 25 -43 10 -76 21
-73 23 2 2 -8 15 -21 27 l-26 24 44 3 c24 2 59 2 78 1 19 -2 85 -7 145 -11z"/>
<path d="M10821 8201 c-20 -15 -21 -19 -7 -24 20 -8 21 -36 2 -43 -23 -9 -26
-30 -4 -31 10 -1 22 5 25 13 4 12 19 13 77 8 80 -7 129 6 120 31 -4 9 -18 15
-35 15 -18 0 -29 5 -29 14 0 10 -15 15 -47 18 -27 3 -55 7 -63 11 -8 4 -26 -2
-39 -12z"/>
<path d="M5912 7351 c-23 -40 -29 -77 -12 -66 6 3 10 -5 10 -19 0 -16 -7 -27
-20 -31 -23 -7 -28 -52 -5 -52 8 0 12 4 9 9 -3 4 8 8 23 8 35 0 57 16 77 54
10 20 12 34 5 42 -5 7 -9 16 -7 20 4 15 -32 74 -45 74 -8 0 -23 -17 -35 -39z"/>
<path d="M11584 5567 c-11 -12 -37 -37 -56 -54 -26 -23 -35 -39 -31 -53 5 -20
15 -24 42 -21 7 2 10 -2 6 -8 -3 -6 -1 -11 5 -11 12 0 40 -24 40 -34 0 -3 -9
-6 -20 -6 -11 0 -20 5 -20 11 0 6 -10 9 -22 7 -16 -2 -24 -11 -26 -28 -2 -14
-9 -31 -15 -39 -7 -8 -7 -12 -2 -10 6 3 18 -2 27 -12 14 -15 15 -19 2 -30 -11
-9 -14 -9 -14 2 0 12 -2 12 -9 0 -5 -8 -7 -21 -4 -28 5 -12 7 -12 14 -2 5 9
10 4 14 -17 4 -16 8 -34 10 -41 4 -14 -22 -26 -30 -13 -3 5 0 12 5 15 7 5 5
12 -7 20 -25 18 -30 12 -27 -35 1 -31 -3 -44 -19 -55 -11 -8 -18 -17 -15 -20
3 -3 19 9 35 28 16 18 34 32 41 29 6 -2 17 6 24 17 17 28 32 27 17 -1 -12 -22
-12 -22 12 -6 16 11 23 23 21 39 -3 20 -2 21 12 10 8 -7 20 -10 26 -6 6 3 10
-3 10 -14 0 -12 4 -21 8 -21 5 0 13 -10 18 -22 6 -13 9 -17 7 -9 -3 11 -1 12
12 1 8 -7 15 -21 15 -31 0 -16 3 -17 19 -8 10 7 24 21 30 32 7 10 8 16 2 13
-5 -4 -13 -1 -17 5 -4 7 -3 9 4 5 6 -3 13 -2 17 3 3 6 13 7 22 4 13 -5 15 -2
10 11 -5 14 -3 17 8 12 8 -3 15 -1 15 5 0 6 8 9 18 7 26 -5 20 -30 -8 -35 -14
-2 -34 -13 -45 -24 l-20 -20 20 7 c18 7 18 6 6 -9 -9 -11 -10 -17 -2 -17 6 0
11 4 11 8 0 5 7 17 15 28 9 11 13 13 10 4 -3 -9 2 -24 11 -35 8 -11 13 -14 9
-8 -6 13 11 54 29 65 7 4 4 13 -7 26 -9 10 -14 22 -10 27 5 4 3 5 -3 2 -7 -4
-22 1 -35 12 -20 16 -26 16 -48 5 -33 -18 -51 -18 -51 0 0 7 -12 26 -27 41
-16 16 -22 25 -14 20 11 -6 13 -2 7 19 -6 25 -5 26 16 14 13 -7 32 -20 43 -28
18 -13 18 -13 8 0 -8 10 -9 21 -3 30 8 13 10 12 10 -2 0 -10 4 -18 9 -18 12 0
21 39 10 46 -18 11 -10 52 12 59 20 7 21 16 4 58 -4 10 -3 17 4 17 6 0 11 -4
11 -10 0 -5 7 -10 16 -10 13 0 13 4 -3 30 -10 17 -23 28 -31 25 -7 -2 -15 2
-18 10 -8 21 -21 19 -27 -5 -3 -11 -10 -20 -16 -20 -6 0 -8 7 -5 15 9 23 -16
47 -42 41 -13 -4 -26 -2 -29 4 -10 16 -28 11 -51 -13z"/>
<path d="M11088 5429 c-10 -5 -18 -16 -18 -23 0 -18 24 -66 33 -66 4 0 2 -10
-4 -22 -10 -19 -8 -24 15 -41 14 -10 24 -23 20 -28 -3 -5 0 -9 5 -9 6 0 11 13
11 29 0 32 18 51 30 31 5 -8 10 -2 14 15 5 21 10 25 18 17 9 -9 16 -8 29 4 13
12 17 12 15 2 -3 -24 -18 -39 -32 -34 -21 8 -17 -12 5 -24 21 -11 37 2 26 20
-3 6 -3 10 2 11 4 0 23 2 41 4 19 2 36 6 38 8 3 2 -12 17 -33 33 -23 18 -38
24 -41 16 -6 -19 -46 -14 -62 9 -31 43 -36 47 -65 53 -16 3 -38 1 -47 -5z"/>
<path d="M5560 5402 c0 -4 -10 -18 -22 -32 -24 -26 -71 -114 -74 -140 -2 -11
0 -11 10 3 15 19 31 24 20 5 -4 -7 6 -2 23 10 17 12 36 22 42 22 6 0 8 7 5 15
-5 11 1 14 23 11 15 -1 44 5 63 14 l34 17 -31 7 c-18 4 -30 12 -28 19 3 7 1
17 -3 22 -9 14 -62 37 -62 27z"/>
<path d="M2663 5171 c-80 -39 -93 -50 -99 -76 -3 -16 -11 -36 -18 -44 -8 -11
-8 -13 2 -7 8 4 12 1 12 -9 0 -10 -6 -15 -13 -12 -20 8 -40 -56 -32 -102 6
-34 3 -41 -21 -60 -15 -12 -25 -23 -23 -25 4 -5 91 33 99 43 3 3 24 19 47 35
24 16 40 32 37 37 -3 5 0 9 5 9 6 0 19 8 29 18 71 67 118 106 125 104 5 -1 6
2 3 7 -4 5 -2 12 4 16 12 8 -10 34 -25 29 -13 -5 -39 52 -31 71 7 20 5 19
-101 -34z"/>
<path d="M3102 5100 c-7 -12 -23 -20 -41 -20 -16 0 -31 -6 -35 -15 -3 -8 -10
-15 -15 -15 -6 0 -7 7 -4 17 4 11 3 14 -5 9 -7 -4 -12 -17 -12 -28 0 -12 -3
-18 -7 -15 -3 4 -15 -1 -25 -10 -19 -17 -25 -19 -85 -27 -18 -2 -37 -7 -42
-10 -5 -4 -12 -2 -16 3 -3 6 -22 -1 -43 -15 -37 -25 -58 -43 -34 -30 15 9 16
-6 0 -22 -6 -6 -9 -14 -6 -18 4 -3 15 3 25 13 37 37 83 65 83 50 0 -10 9 -12
31 -9 l31 5 -16 -26 c-10 -14 -13 -28 -8 -31 13 -8 82 26 82 40 0 7 13 23 28
36 16 13 26 30 24 37 -3 10 1 12 13 7 12 -4 28 5 56 34 21 22 39 45 39 50 0
15 -4 12 -18 -10z"/>
<path d="M5680 5058 c0 -9 5 -20 10 -23 13 -8 13 -55 0 -55 -6 0 -6 -9 -1 -22
5 -13 6 -31 2 -40 -3 -10 -5 -38 -3 -62 3 -39 7 -44 27 -42 13 0 21 4 18 9 -7
11 12 8 24 -4 7 -7 20 -8 34 -3 13 4 33 7 43 5 15 -2 18 2 13 20 -4 16 -3 19
6 10 36 -36 31 32 -7 81 -25 33 -30 36 -43 23 -16 -17 -33 -20 -33 -6 0 4 -11
20 -25 33 -21 21 -23 27 -10 32 14 5 14 8 -1 31 -13 20 -19 23 -26 13 -6 -10
-10 -10 -18 2 -8 13 -10 13 -10 -2z"/>
<path d="M332 4660 c-12 -16 -19 -35 -16 -44 4 -11 1 -16 -11 -16 -9 0 -13 -4
-10 -10 9 -14 -8 -13 -23 2 -13 13 -16 32 -4 24 4 -2 14 -1 22 5 13 7 12 9 -2
9 -9 0 -19 8 -21 18 -4 16 -5 16 -6 0 0 -10 -6 -18 -12 -18 -6 0 -9 -9 -6 -20
3 -11 1 -18 -4 -14 -18 11 -29 -6 -18 -27 10 -19 12 -19 33 -6 15 10 28 12 37
6 11 -7 8 -9 -9 -9 -13 0 -20 -4 -17 -10 4 -6 -8 -10 -28 -10 -20 0 -40 -7
-48 -17 -12 -14 -12 -15 1 -11 8 3 23 -2 33 -10 13 -12 20 -13 29 -4 23 23 41
14 36 -18 -2 -16 0 -31 5 -33 5 -1 2 -10 -7 -19 -17 -18 -13 -43 10 -52 11 -4
13 1 10 19 -5 26 1 26 33 1 16 -12 73 -9 82 5 3 6 17 12 32 14 22 4 26 1 32
-25 8 -37 27 -39 45 -5 18 34 40 32 40 -2 0 -17 -3 -23 -8 -16 -5 8 -13 9 -22
3 -12 -7 -11 -10 5 -15 32 -10 50 -22 48 -32 -1 -5 5 -10 13 -10 7 0 14 4 14
9 0 4 -4 8 -10 8 -5 0 -10 4 -10 10 0 5 8 6 18 3 15 -6 16 -5 2 13 -14 18 -14
18 2 5 10 -7 15 -17 12 -22 -6 -11 7 -11 23 -1 20 12 -34 64 -58 57 -13 -4
-19 -2 -19 8 0 8 -12 22 -26 32 -15 9 -23 12 -20 6 4 -6 3 -11 -2 -11 -14 0
-35 28 -29 37 8 12 -16 39 -33 38 -8 0 -17 -12 -20 -29 -4 -26 -6 -27 -18 -13
-8 9 -11 21 -7 27 7 11 -2 13 -56 10 -22 -1 -43 5 -53 16 -23 23 -11 31 14 9
21 -19 28 -7 8 13 -9 9 -9 12 0 12 7 0 12 -5 12 -11 0 -6 7 -9 15 -5 9 3 15 0
15 -9 0 -23 18 -17 22 7 3 21 4 21 21 4 15 -15 19 -16 32 -3 8 8 12 17 9 20
-3 2 2 7 11 11 9 3 14 2 11 -2 -2 -4 -1 -14 4 -22 7 -12 12 -12 21 -3 14 14
-4 43 -27 43 -24 0 -15 20 9 21 21 0 21 1 2 8 -24 10 -46 8 -44 -4 1 -8 -21
-25 -33 -25 -5 0 -8 5 -8 11 0 5 5 7 12 3 7 -4 8 -3 4 4 -4 7 -19 9 -38 5 -23
-4 -33 -2 -40 11 -5 9 -13 14 -19 11 -5 -4 -9 -1 -9 4 0 14 6 14 32 0 12 -6
18 -7 14 -1 -3 5 1 16 10 23 13 10 17 10 24 0 5 -9 17 -11 34 -7 25 6 28 26 5
26 -6 0 -7 -5 -3 -12 5 -7 3 -8 -5 -4 -7 5 -10 14 -7 22 4 11 -4 14 -32 13
-28 0 -42 -7 -60 -29z"/>
<path d="M567 4664 c-18 -16 -27 -33 -27 -54 0 -16 -5 -30 -11 -30 -6 0 -7 -5
-2 -12 14 -24 11 -38 -10 -50 l-21 -11 23 -9 c12 -4 27 -6 31 -3 5 3 14 -3 20
-14 6 -11 17 -18 24 -15 8 3 19 -4 26 -16 8 -16 15 -19 22 -12 8 8 6 18 -5 36
-10 15 -13 27 -7 31 6 3 10 -1 10 -9 0 -8 4 -18 10 -21 6 -3 7 1 4 10 -5 12
-2 14 17 6 13 -5 23 -14 21 -21 -1 -6 2 -8 8 -5 6 4 9 14 5 24 -5 14 -4 14 12
-1 11 -12 16 -30 15 -52 -1 -19 3 -40 11 -48 7 -7 16 -21 20 -31 6 -15 9 -16
21 -5 10 9 11 15 2 20 -8 6 -7 8 2 8 7 0 10 5 7 10 -4 6 -1 9 7 8 10 -2 13 12
13 55 0 54 1 58 22 52 29 -7 60 5 41 16 -19 13 -30 11 -22 -3 6 -10 3 -9 -8 0
-9 8 -14 20 -11 28 4 11 9 12 19 3 25 -21 36 -4 14 21 -12 14 -19 19 -15 13 4
-9 1 -11 -10 -7 -9 4 -14 13 -11 21 3 8 6 23 6 33 0 11 9 20 23 23 l22 4 -22
2 c-13 0 -28 -8 -35 -19 -10 -16 -15 -17 -28 -6 -9 8 -24 10 -40 5 -21 -6 -22
-7 -5 -9 11 -1 24 -2 28 -1 5 1 6 -3 2 -9 -3 -6 -10 -8 -15 -5 -5 3 -15 -1
-23 -9 -12 -13 -17 -13 -33 -1 -11 7 -16 17 -11 21 4 4 7 2 7 -4 0 -7 5 -12
10 -12 15 0 12 20 -4 26 -19 7 -62 -31 -47 -41 6 -3 11 -10 11 -16 0 -5 -9 0
-21 12 -15 15 -18 24 -10 32 17 17 13 31 -4 17 -9 -7 -18 -10 -22 -6 -3 3 -2
6 4 6 18 0 10 28 -12 38 -16 8 -27 5 -48 -14z"/>
<path d="M12783 4644 c4 -7 -4 -13 -23 -16 -16 -2 -27 -1 -24 4 3 4 -4 8 -15
8 -18 0 -20 -5 -17 -32 3 -18 5 -35 6 -38 1 -3 1 -15 0 -27 -1 -13 3 -23 9
-23 6 0 11 9 11 21 0 16 5 20 28 17 15 -2 25 -7 22 -13 -3 -5 -12 -9 -21 -8
-12 2 -16 -3 -12 -17 3 -11 9 -23 14 -26 5 -3 9 -14 9 -25 0 -10 4 -19 9 -19
5 0 7 -9 4 -20 -3 -11 -9 -17 -14 -14 -5 3 -7 10 -4 15 3 5 -1 6 -9 3 -17 -6
-19 2 -16 49 1 15 -3 27 -8 27 -15 0 -20 -48 -7 -67 7 -9 10 -24 8 -33 -3 -11
3 -16 19 -18 50 -5 81 -2 94 9 12 10 12 14 -3 25 -16 13 -15 14 12 12 24 -3
29 0 27 15 -3 16 1 18 26 12 18 -3 33 -2 37 4 3 7 0 8 -9 5 -11 -4 -16 0 -16
10 0 19 -21 21 -38 4 -9 -9 -12 -9 -12 0 0 7 5 12 11 12 7 0 9 10 5 24 -3 14
-1 28 4 31 6 4 8 16 4 28 -5 18 -4 20 7 10 7 -7 18 -13 24 -13 5 0 1 7 -9 15
-10 8 -23 12 -27 9 -5 -3 -9 -1 -9 4 0 6 -14 15 -31 21 -41 14 -42 14 -35 -5
4 -10 1 -14 -6 -12 -7 3 -13 10 -13 16 0 5 -4 14 -9 19 -5 4 -6 3 -3 -3z"/>
<path d="M6373 4620 c-13 -5 -23 -12 -23 -15 0 -4 4 -4 9 0 5 3 12 1 15 -4 3
-5 -1 -12 -10 -15 -24 -9 -34 -7 -34 8 0 8 -11 13 -30 12 -16 -1 -30 -5 -30
-10 0 -6 -12 -23 -27 -38 l-27 -28 32 0 c25 0 30 -3 25 -17 -4 -11 -8 -12 -11
-5 -6 19 -22 14 -22 -7 0 -30 15 -33 77 -18 32 8 82 18 112 22 l55 7 -30 14
-29 14 32 -3 c19 -2 29 1 26 6 -4 6 3 7 18 3 31 -10 79 -18 59 -10 -31 11 -66
27 -83 36 -11 5 -21 7 -24 4 -3 -2 -17 8 -31 24 -22 23 -31 27 -49 20z"/>
<path d="M145 4472 c6 -4 17 -16 25 -26 14 -18 14 -19 -7 -8 -16 9 -23 9 -26
-1 -4 -9 -6 -9 -6 1 -2 24 -21 2 -21 -24 0 -13 -4 -24 -10 -24 -5 0 -7 -8 -3
-17 3 -10 3 -15 -2 -11 -4 4 -14 0 -23 -8 -11 -11 -17 -12 -22 -4 -6 9 -13 9
-29 0 -18 -9 -21 -19 -20 -55 2 -24 6 -42 10 -39 11 6 39 -7 39 -18 0 -5 -10
-7 -23 -3 -21 6 -21 5 -3 -9 13 -11 24 -12 37 -6 16 9 16 13 4 37 -11 21 -12
29 -2 35 9 6 8 8 -2 8 -8 0 -12 3 -8 6 9 10 67 -19 67 -33 0 -7 5 -13 11 -13
6 0 9 -7 6 -14 -4 -10 -1 -13 9 -9 25 10 15 -13 -12 -26 -22 -10 -26 -9 -21 3
4 9 2 18 -3 21 -6 4 -10 -1 -10 -10 0 -11 -5 -15 -14 -12 -21 8 -28 -4 -10
-18 14 -10 13 -12 -9 -22 -26 -12 -38 -8 -55 22 -11 19 -11 18 -12 -7 0 -21 6
-28 29 -33 16 -3 40 -3 54 0 14 4 28 2 31 -4 6 -9 -5 -13 -30 -10 -3 0 -11 -7
-18 -17 -7 -9 -19 -15 -27 -12 -17 6 -39 -15 -39 -36 0 -9 8 -17 18 -18 46 -4
57 -3 63 5 9 13 69 -24 62 -37 -3 -6 0 -5 8 2 17 16 39 15 39 -2 0 -8 7 -16
15 -20 29 -11 15 29 -25 73 -46 51 -49 58 -15 35 22 -15 26 -15 40 0 21 21 21
21 19 -18 -2 -31 0 -33 28 -30 25 3 28 1 19 -10 -9 -11 -9 -16 0 -22 8 -5 10
-3 4 7 -6 11 -5 11 4 3 7 -7 14 -26 15 -44 l2 -32 -25 31 c-14 17 -30 31 -36
31 -5 0 -1 -7 9 -15 11 -8 14 -15 8 -15 -7 0 -12 -4 -12 -8 0 -11 87 -52 111
-52 12 0 19 -5 16 -12 -2 -7 4 -24 14 -37 10 -13 16 -27 13 -32 -3 -5 1 -6 9
-3 8 3 17 -2 21 -11 3 -9 2 -13 -4 -10 -6 3 -10 1 -10 -4 0 -6 7 -11 16 -11
11 0 14 -6 9 -21 -6 -17 -3 -20 12 -17 10 2 18 12 19 24 1 27 12 44 27 44 7 0
6 -4 -3 -10 -13 -8 -12 -10 3 -10 11 0 21 -9 24 -19 4 -16 10 -18 33 -11 21 6
32 4 41 -6 7 -8 17 -13 24 -11 6 3 12 -6 13 -20 1 -17 -4 -26 -18 -30 -11 -3
-17 -9 -14 -14 3 -5 11 -6 17 -2 19 12 47 14 47 3 0 -6 -4 -10 -10 -10 -19 0
2 -28 26 -34 22 -6 23 -8 9 -22 -13 -14 -13 -34 1 -34 3 0 2 5 -1 10 -3 6 -4
10 -1 10 3 0 10 -9 16 -20 10 -18 9 -19 -16 -10 l-27 11 19 -28 c18 -28 43
-57 45 -51 9 38 8 48 -3 42 -7 -4 -5 2 5 13 10 12 29 24 43 27 13 4 24 13 24
21 0 7 5 17 12 21 7 4 8 3 4 -4 -9 -15 19 -16 45 -1 20 10 20 11 2 26 -10 8
-12 11 -4 7 21 -11 133 -4 149 9 12 9 11 13 -5 25 -17 14 -17 14 1 8 12 -4 23
-1 28 6 6 11 8 10 8 0 0 -7 4 -11 9 -8 5 3 8 -2 7 -12 0 -9 5 -17 12 -16 6 1
22 2 35 3 21 3 21 3 -3 11 l-25 8 28 1 c15 1 27 4 28 9 0 4 3 18 5 32 l5 25
-16 -22 c-18 -26 -57 -32 -50 -8 16 50 14 48 33 34 15 -13 16 -12 4 3 -8 10
-24 20 -35 24 -22 7 -71 52 -72 66 0 3 -4 10 -9 15 -5 5 -6 2 -2 -7 6 -12 5
-12 -6 1 -7 9 -19 14 -27 11 -8 -3 -11 0 -7 6 4 7 24 9 49 7 27 -3 35 -2 23 3
-14 6 -16 11 -8 16 18 11 14 23 -10 29 -31 9 -36 -1 -7 -12 l24 -10 -27 0
c-16 -1 -28 3 -28 8 0 6 -10 8 -22 6 -21 -4 -22 -3 -5 9 16 12 16 14 1 20 -21
8 -21 9 -19 -15 1 -11 8 -25 16 -30 10 -6 10 -9 2 -9 -7 0 -16 -1 -20 -2 -4
-2 -10 11 -13 27 -4 20 -11 30 -23 29 -9 -1 -15 2 -12 6 3 5 2 10 -2 13 -5 2
-2 2 5 1 6 -2 12 1 12 6 0 6 -5 10 -10 10 -6 0 -9 5 -8 11 2 6 -3 14 -11 17
-8 2 -11 0 -7 -6 3 -6 2 -13 -3 -16 -5 -4 -12 -2 -16 4 -3 5 -16 10 -28 9 -12
0 -16 -3 -9 -6 6 -2 12 -9 12 -15 0 -6 -6 -6 -15 2 -14 12 -19 7 -16 -13 1 -5
-4 -5 -10 -1 -9 5 -4 14 15 31 15 12 23 23 19 23 -4 0 -1 5 7 10 8 5 10 10 4
10 -6 0 -17 -7 -24 -15 -13 -16 -30 -11 -30 8 0 7 4 6 11 -3 9 -13 10 -13 6 0
-2 8 -11 14 -20 14 -10 -1 -14 3 -10 9 4 6 0 8 -10 4 -9 -3 -18 -1 -20 6 -6
16 -16 6 -20 -19 -1 -10 -6 -25 -10 -31 -5 -8 -3 -13 5 -13 9 0 9 -3 -2 -10
-12 -8 -13 -12 -2 -19 11 -6 10 -10 -4 -15 -16 -6 -16 -8 -4 -16 9 -6 10 -10
3 -10 -17 0 -25 17 -13 25 17 10 -8 35 -27 28 -12 -5 -14 -3 -8 7 5 9 4 11 -3
6 -7 -4 -12 -14 -12 -22 0 -8 -5 -14 -11 -14 -5 0 -7 5 -4 10 3 6 -4 14 -17
19 -17 6 -25 5 -31 -6 -8 -12 -12 -12 -30 4 -11 10 -17 12 -13 6 4 -7 3 -13
-2 -13 -16 0 -76 32 -99 53 -13 11 -25 18 -28 15 -3 -3 24 -37 61 -77 36 -39
61 -71 56 -71 -16 0 -7 -31 17 -56 l22 -23 -53 20 c-29 10 -58 26 -64 34 -6 8
-16 15 -22 15 -7 0 -14 11 -18 25 -3 14 -14 30 -23 35 -15 9 -14 9 1 10 30 0
7 66 -36 103 -18 16 -18 21 -7 39 11 19 11 20 -4 14 -15 -5 -16 -4 -5 9 7 8
13 42 14 75 1 47 4 59 15 55 8 -3 0 9 -17 26 -17 17 -41 32 -54 33 -18 1 -23
7 -21 26 3 24 2 25 -13 5 -12 -17 -16 -18 -24 -5 -6 9 -5 17 2 21 7 4 5 8 -3
11 -8 3 -11 9 -7 13 4 4 14 2 23 -5 10 -8 15 -9 15 -1 0 6 5 11 11 11 5 0 7
-4 4 -10 -3 -5 -2 -10 4 -10 15 0 24 41 12 53 -8 8 -11 6 -11 -6 0 -18 -20
-19 -32 -2 -5 6 -11 5 -17 -5 -8 -12 -12 -12 -29 3 -10 9 -23 17 -28 17 -5 0
-4 -4 1 -8z"/>
<path d="M4216 4074 c-10 -25 -7 -36 7 -28 7 4 9 3 4 -2 -5 -5 -14 -9 -20 -9
-7 0 -12 -6 -12 -12 0 -18 -71 -52 -86 -42 -7 4 -17 5 -22 2 -4 -3 -11 4 -14
16 -6 23 -14 26 -28 12 -6 -5 -21 -12 -34 -16 -30 -9 -19 12 13 25 14 6 16 9
5 9 -16 1 -59 -34 -59 -48 0 -4 15 -6 33 -4 27 4 29 2 14 -7 -10 -7 -29 -9
-42 -6 -19 5 -26 0 -39 -28 -21 -44 -20 -46 6 -41 12 3 32 17 45 32 13 16 22
22 21 15 -4 -19 30 -41 40 -26 8 12 52 29 65 26 5 -2 30 13 57 33 26 19 54 35
63 35 17 0 40 24 31 33 -3 3 4 10 15 17 12 6 19 15 16 20 -4 6 -14 5 -25 -2
-14 -9 -22 -9 -33 0 -12 10 -16 9 -21 -4z"/>
<path d="M1683 3923 c-7 -2 -9 -11 -6 -20 4 -11 2 -14 -5 -9 -7 4 -10 0 -7
-11 4 -26 45 -93 56 -93 5 0 9 -7 9 -15 0 -8 4 -15 8 -15 12 0 42 -56 42 -78
0 -11 6 -22 14 -25 20 -8 28 -47 9 -47 -17 0 -9 -16 17 -30 15 -8 17 -7 13 10
-5 19 -4 19 26 4 35 -17 114 -31 93 -16 -11 7 -11 10 2 15 19 7 13 46 -11 84
-8 12 -14 25 -13 28 1 8 -58 63 -63 58 -2 -2 -10 3 -17 12 -7 8 -18 15 -24 15
-12 0 -76 61 -74 70 6 18 -51 70 -69 63z"/>
<path d="M3714 3905 c-4 -8 0 -23 7 -32 10 -12 10 -15 2 -9 -17 10 -35 -2 -26
-17 11 -18 12 -56 2 -62 -5 -4 -9 -11 -9 -16 0 -6 4 -8 9 -5 19 12 43 -6 37
-27 -3 -12 0 -28 7 -36 10 -13 10 -14 -3 -5 -8 6 -40 14 -70 16 -30 3 -56 11
-58 17 -2 6 -10 11 -17 11 -8 0 -17 9 -20 20 -3 11 -11 20 -16 20 -5 0 -9 -9
-9 -20 0 -11 -5 -20 -11 -20 -8 0 -10 -13 -6 -37 4 -21 3 -32 -2 -25 -6 9 -12
8 -26 -8 -24 -27 -43 -25 -78 8 -28 26 -29 26 -42 8 -12 -16 -17 -17 -30 -6
-8 7 -15 10 -15 6 0 -4 -10 0 -22 7 -17 11 -32 12 -55 5 -43 -11 -45 -36 -3
-30 23 3 30 0 30 -12 0 -9 7 -16 15 -16 8 0 15 -5 15 -11 0 -5 -4 -8 -9 -5 -5
3 -11 -1 -15 -9 -3 -8 -1 -17 4 -20 14 -8 35 7 35 25 0 17 48 16 53 0 2 -6 16
-7 30 -4 l27 5 -25 -22 c-18 -16 -20 -20 -7 -16 10 4 23 7 28 7 5 0 9 6 9 14
0 10 13 15 43 15 61 1 109 9 121 21 7 7 6 10 -2 10 -7 0 -12 5 -12 11 0 8 4 8
13 1 9 -8 25 -8 53 -1 113 30 144 41 144 53 0 7 6 13 14 13 7 0 36 14 63 32
39 25 49 37 46 52 -3 11 -8 17 -11 15 -3 -3 -11 2 -19 12 -13 16 -14 16 -9 0
3 -12 1 -15 -10 -11 -8 3 -21 0 -29 -7 -9 -7 -19 -10 -22 -6 -4 4 -1 11 6 15
15 10 8 15 -34 25 -16 4 -38 16 -48 27 -10 11 -22 17 -27 14 -6 -3 -7 1 -4 9
3 9 3 16 0 16 -4 0 -9 -7 -12 -15z"/>
</g>
</svg>
